<?xml version="1.0" encoding="UTF-8" standalone="no"?>
<svg
   xmlns:dc="http://purl.org/dc/elements/1.1/"
   xmlns:cc="http://creativecommons.org/ns#"
   xmlns:rdf="http://www.w3.org/1999/02/22-rdf-syntax-ns#"
   xmlns:svg="http://www.w3.org/2000/svg"
   xmlns="http://www.w3.org/2000/svg"
   xmlns:sodipodi="http://sodipodi.sourceforge.net/DTD/sodipodi-0.dtd"
   xmlns:inkscape="http://www.inkscape.org/namespaces/inkscape"
   width="15.293211mm"
   height="15.568348mm"
   viewBox="0 0 15.293211 15.568348"
   version="1.1"
   id="svg8"
   sodipodi:docname="monst3.svg"
   inkscape:version="1.0.2-2 (e86c870879, 2021-01-15)">
  <defs
     id="defs2" />
  <sodipodi:namedview
     id="base"
     pagecolor="#ffffff"
     bordercolor="#666666"
     borderopacity="1.0"
     inkscape:pageopacity="0.0"
     inkscape:pageshadow="2"
     inkscape:zoom="3.959798"
     inkscape:cx="144.22078"
     inkscape:cy="-30.50284"
     inkscape:document-units="mm"
     inkscape:current-layer="layer1"
     inkscape:document-rotation="0"
     showgrid="false"
     inkscape:window-width="2560"
     inkscape:window-height="1417"
     inkscape:window-x="-8"
     inkscape:window-y="-8"
     inkscape:window-maximized="1" />
  <metadata
     id="metadata5">
    <rdf:RDF>
      <cc:Work
         rdf:about="">
        <dc:format>image/svg+xml</dc:format>
        <dc:type
           rdf:resource="http://purl.org/dc/dcmitype/StillImage" />
        <dc:title />
      </cc:Work>
    </rdf:RDF>
  </metadata>
  <g
     inkscape:label="Layer 1"
     inkscape:groupmode="layer"
     id="layer1"
     transform="translate(-18.394116,-57.526058)">
    <path
       style="fill:none;stroke:#000000;stroke-width:0.185;stroke-miterlimit:4;stroke-dasharray:none;stroke-opacity:1"
       d="m 26.998408,62.343168 c 0.8583,-0.415497 0.743731,-1.147081 -0.117869,-0.752655 -0.387238,0.177271 -0.918416,0.709531 -0.837977,0.839683 0.09171,0.148386 0.557071,0.106015 0.955846,-0.08703 z"
       id="path431" />
    <path
       style="fill:none;stroke:#000000;stroke-width:0.185;stroke-miterlimit:4;stroke-dasharray:none;stroke-opacity:1"
       d="m 24.356031,62.766772 c 0.205479,-0.05174 0.413508,-0.142161 0.462286,-0.200935 0.397391,-0.478826 -1.073621,-0.735833 -1.643941,-0.287219 -0.580461,0.456591 0.134324,0.751876 1.181655,0.488154 z"
       id="path429" />
    <path
       style="fill:none;stroke:#000000;stroke-width:0.185;stroke-miterlimit:4;stroke-dasharray:none;stroke-opacity:1"
       d="m 27.862716,63.586176 c 0.08116,-0.09779 0.05852,-0.148971 -0.116654,-0.263751 -0.248543,-0.162851 -1.215887,-0.257156 -1.393816,-0.13588 -0.156361,0.106575 -0.06098,0.336263 0.179794,0.432968 0.317699,0.1276 1.215783,0.105101 1.330676,-0.03334 z"
       id="path427" />
    <path
       style="fill:none;stroke:#000000;stroke-width:0.185;stroke-miterlimit:4;stroke-dasharray:none;stroke-opacity:1"
       d="m 24.971817,63.605916 c 0.125562,-0.125562 0.132321,-0.37742 0.01212,-0.451708 -0.258009,-0.159457 -0.699751,0.219092 -0.545989,0.467884 0.07272,0.117658 0.410262,0.10743 0.533868,-0.01618 z"
       id="path425" />
    <path
       style="fill:none;stroke:#000000;stroke-width:0.185;stroke-miterlimit:4;stroke-dasharray:none;stroke-opacity:1"
       d="m 27.664321,65.217649 c 0.091,-0.147249 -0.360592,-0.494133 -0.643296,-0.494133 -0.269957,0 -0.364181,0.08971 -0.291944,0.277958 0.09986,0.260239 0.80699,0.423687 0.93524,0.216175 z"
       id="path423" />
    <path
       style="fill:none;stroke:#000000;stroke-width:0.185;stroke-miterlimit:4;stroke-dasharray:none;stroke-opacity:1"
       d="m 25.581417,66.41685 c 0.20115,-0.201151 0.210562,-0.283716 0.04775,-0.418842 -0.238024,-0.197543 -0.751758,0.273629 -0.534849,0.490537 0.142529,0.14253 0.295376,0.120032 0.487104,-0.0717 z"
       id="path421" />
    <path
       style="fill:none;stroke:#000000;stroke-width:0.185;stroke-miterlimit:4;stroke-dasharray:none;stroke-opacity:1"
       d="m 27.389094,67.138967 c 0.05494,-0.143172 -0.153135,-0.383451 -0.332058,-0.383451 -0.14703,0 -0.159699,0.266053 -0.01935,0.4064 0.138002,0.138003 0.293546,0.127844 0.35141,-0.02295 z"
       id="path419" />
    <path
       style="fill:none;stroke:#000000;stroke-width:0.185;stroke-miterlimit:4;stroke-dasharray:none;stroke-opacity:1"
       d="m 26.030684,72.924185 c -0.05208,-0.06325 -0.141721,-0.355155 -0.199211,-0.648674 -0.145482,-0.742773 -0.05941,-1.601154 0.220625,-2.200252 0.308055,-0.659044 0.380954,-0.994584 0.253845,-1.168414 -0.257383,-0.351993 -0.639823,0.32558 -0.639874,1.133672 -8e-6,0.125767 -0.05803,0.531851 -0.128938,0.90241 -0.08727,0.456049 -0.110845,0.873238 -0.07297,1.291166 0.03133,0.345734 0.02287,0.616151 -0.01923,0.614532 -0.29567,-0.01137 -1.423523,-0.341157 -1.481927,-0.433316 -0.03978,-0.06277 -0.07291,-0.443488 -0.07362,-0.84604 -0.0019,-1.052501 0.340731,-2.084776 1.126553,-3.394416 0.565054,-0.941711 0.579407,-1.076429 0.09289,-0.871864 -0.222471,0.09354 -0.286616,0.197562 -0.452169,0.733266 -0.106107,0.343344 -0.396003,0.967161 -0.644213,1.386261 -0.519349,0.876914 -0.717026,1.476365 -0.717026,2.174368 0,0.278808 -0.03753,0.492633 -0.08647,0.492633 -0.07956,0 -0.333227,-0.247279 -1.342817,-1.308978 -0.357267,-0.375706 -0.368991,-0.404821 -0.317882,-0.789392 0.02919,-0.219613 0.184767,-0.665997 0.345736,-0.991964 0.363187,-0.735465 1.602585,-2.396031 2.214168,-2.966578 0.440804,-0.411227 0.574802,-0.71845 0.36887,-0.845723 -0.172009,-0.106308 -0.505777,0.225032 -1.241534,1.232499 -1.269849,1.738795 -1.629498,2.29851 -1.776424,2.764615 -0.135953,0.43129 -0.280319,0.595569 -0.280319,0.318983 0,-0.260806 -0.282323,-0.684008 -0.826719,-1.23925 l -0.555062,-0.56612 0.150392,-0.393795 c 0.226856,-0.594013 1.032825,-1.394097 2.133312,-2.117731 0.529103,-0.347916 1.161747,-0.830527 1.405875,-1.072469 0.407727,-0.404076 0.428238,-0.44246 0.2519,-0.471411 -0.44217,-0.07259 -1.247131,0.324052 -2.971064,1.46399 -0.684021,0.452304 -1.202119,0.858253 -1.312017,1.028015 -0.09989,0.1543 -0.200666,0.280367 -0.22395,0.280147 -0.04631,-4.23e-4 -0.335362,-0.690332 -0.612707,-1.462403 -0.170823,-0.475533 -0.171696,-0.501235 -0.02733,-0.804333 0.5882,-1.234927 1.863442,-2.168244 3.387702,-2.479374 0.883551,-0.180349 1.158322,-0.383445 0.951623,-0.703391 -0.173582,-0.268682 -0.645934,-0.474392 -1.089644,-0.47454 -0.327742,-8.5e-5 -0.42648,0.03859 -0.572685,0.224461 -0.191532,0.243492 -0.190717,0.243563 -0.332158,-0.02853 -0.235762,-0.453532 -0.03902,-1.122117 0.448443,-1.523924 0.828949,-0.68329 2.285858,-0.569341 2.95971,0.231486 0.302696,0.359734 0.374363,0.554028 0.478385,1.296945 0.119269,0.85181 0.230572,1.154093 0.424946,1.154093 0.228861,0 0.281105,-0.302661 0.212821,-1.232908 -0.05152,-0.701883 -0.0375,-0.841728 0.120083,-1.197981 0.323394,-0.731086 0.745718,-1.041282 1.414772,-1.039148 0.38894,0.0012 0.753935,0.139638 0.575705,0.218293 -0.895831,0.395339 -1.434897,1.289777 -0.957457,1.588645 0.19913,0.124652 0.425553,-0.09729 0.850903,-0.834065 0.447941,-0.775909 0.854351,-1.27302 1.260462,-1.541771 0.287023,-0.189943 0.391881,-0.212102 0.819989,-0.173282 0.639143,0.05795 1.427548,0.45586 1.826322,0.921739 0.168363,0.196694 0.306114,0.402277 0.306114,0.456853 0,0.06449 -0.259333,0.116715 -0.740834,0.149186 -1.073201,0.07237 -2.075565,0.45186 -2.624666,0.993681 -0.494565,0.488007 -0.326201,0.547904 0.496289,0.176558 0.885917,-0.399982 2.192971,-0.783289 2.840998,-0.833153 0.538635,-0.04144 0.633729,-0.02561 0.846667,0.141016 0.541799,0.423956 0.970658,1.394451 1.075341,2.433468 0.04297,0.426486 0.03751,0.44027 -0.194649,0.491259 -0.151623,0.0333 -0.420486,-0.01491 -0.736169,-0.131997 -1.200125,-0.445143 -1.414544,-0.50398 -2.179041,-0.597931 -1.001346,-0.123058 -1.8775,-0.0059 -2.366555,0.316337 -0.584426,0.385127 -0.445428,0.414868 1.938961,0.414868 1.534526,0 2.325436,0.03346 2.631298,0.111307 l 0.437309,0.111306 0.05786,0.420723 c 0.05873,0.42704 -0.09439,1.823476 -0.207626,1.893458 -0.03402,0.02103 -0.363435,-0.108546 -0.732024,-0.287943 -1.112756,-0.54159 -2.795072,-0.832649 -3.960958,-0.685289 -1.075653,0.135956 -0.918425,0.359071 0.428548,0.608129 2.027199,0.374833 2.538257,0.503885 3.113978,0.786338 0.928653,0.455604 0.904152,0.419186 0.807022,1.199585 -0.06123,0.491993 -0.166015,0.830382 -0.397031,1.28222 -0.172612,0.337608 -0.340014,0.613833 -0.372004,0.613833 -0.03199,0 -0.222181,-0.251745 -0.422648,-0.559434 -0.774959,-1.189453 -1.706465,-1.878405 -2.981302,-2.205002 -0.967916,-0.247969 -1.491564,0.130471 -0.927841,0.670552 0.128476,0.123089 0.690451,0.449913 1.248833,0.726276 1.130415,0.559484 1.61416,0.940416 2.132351,1.679148 l 0.350525,0.499707 -0.166331,0.46221 c -0.09148,0.254215 -0.188019,0.528885 -0.214527,0.610376 -0.07829,0.240694 -0.147522,0.177072 -0.410992,-0.377698 -0.466279,-0.981812 -1.077026,-1.648108 -2.044982,-2.230981 -0.5053,-0.304276 -0.908967,-0.374687 -0.986702,-0.172109 -0.06597,0.171923 0.142825,0.329337 1.001529,0.755056 0.866476,0.429574 0.926205,0.486442 1.64648,1.567641 0.376723,0.565497 0.513652,0.842848 0.480702,0.973667 -0.05669,0.225073 -0.54696,0.902591 -0.653138,0.902591 -0.04254,0 -0.07734,-0.146314 -0.07734,-0.325143 0,-0.516352 -0.428539,-1.263696 -1.091791,-1.904012 -0.553015,-0.533891 -0.857837,-0.681956 -0.983928,-0.477936 -0.02954,0.0478 0.235321,0.36945 0.588584,0.714779 0.689288,0.673807 0.934665,1.10838 1.029502,1.823292 0.04469,0.336896 0.03141,0.42302 -0.06522,0.42302 -0.06673,0 -0.30464,0.116251 -0.528683,0.258335 -0.224044,0.142084 -0.415789,0.246859 -0.426102,0.232834 -0.01031,-0.01403 -0.08194,-0.288086 -0.159165,-0.609022 -0.147948,-0.614816 -0.256937,-0.81348 -0.446287,-0.81348 -0.190068,0 -0.226666,0.382958 -0.08362,0.87501 0.07409,0.254862 0.13471,0.501419 0.13471,0.547905 0,0.227817 -1.584808,0.461567 -1.752066,0.25842 z"
       id="path24" />
  </g>
</svg>
