<?xml version="1.0" encoding="UTF-8" standalone="no"?>
<svg
   xmlns:dc="http://purl.org/dc/elements/1.1/"
   xmlns:cc="http://creativecommons.org/ns#"
   xmlns:rdf="http://www.w3.org/1999/02/22-rdf-syntax-ns#"
   xmlns:svg="http://www.w3.org/2000/svg"
   xmlns="http://www.w3.org/2000/svg"
   xmlns:sodipodi="http://sodipodi.sourceforge.net/DTD/sodipodi-0.dtd"
   xmlns:inkscape="http://www.inkscape.org/namespaces/inkscape"
   width="18.747381mm"
   height="14.075754mm"
   viewBox="0 0 18.747381 14.075754"
   version="1.1"
   id="svg8"
   sodipodi:docname="monst4.svg"
   inkscape:version="1.0.2-2 (e86c870879, 2021-01-15)">
  <defs
     id="defs2" />
  <sodipodi:namedview
     id="base"
     pagecolor="#ffffff"
     bordercolor="#666666"
     borderopacity="1.0"
     inkscape:pageopacity="0.0"
     inkscape:pageshadow="2"
     inkscape:zoom="3.959798"
     inkscape:cx="97.185718"
     inkscape:cy="-16.712308"
     inkscape:document-units="mm"
     inkscape:current-layer="layer1"
     inkscape:document-rotation="0"
     showgrid="false"
     inkscape:window-width="2560"
     inkscape:window-height="1417"
     inkscape:window-x="-8"
     inkscape:window-y="-8"
     inkscape:window-maximized="1" />
  <metadata
     id="metadata5">
    <rdf:RDF>
      <cc:Work
         rdf:about="">
        <dc:format>image/svg+xml</dc:format>
        <dc:type
           rdf:resource="http://purl.org/dc/dcmitype/StillImage" />
        <dc:title />
      </cc:Work>
    </rdf:RDF>
  </metadata>
  <g
     inkscape:label="Layer 1"
     inkscape:groupmode="layer"
     id="layer1"
     transform="translate(-33.425351,-58.959142)">
    <path
       style="fill:none;stroke:#000000;stroke-width:0.185;stroke-miterlimit:4;stroke-dasharray:none;stroke-opacity:1"
       d="m 45.528883,65.19765 c 0.377001,-0.377002 0.399459,-0.728134 0.04657,-0.728134 -0.225168,0 -0.853261,0.377291 -0.986211,0.592409 -0.08796,0.142321 0.207371,0.423591 0.444763,0.423591 0.122536,0 0.324482,-0.117471 0.494878,-0.287866 z"
       id="path441" />
    <path
       style="fill:none;stroke:#000000;stroke-width:0.185;stroke-miterlimit:4;stroke-dasharray:none;stroke-opacity:1"
       d="m 42.853416,66.393355 c 0,-0.163616 -0.248651,-0.484505 -0.375434,-0.484505 -0.06151,0 -0.159856,0.05786 -0.218551,0.128588 -0.08733,0.105231 -0.07914,0.159057 0.04509,0.296333 0.169002,0.186745 0.548896,0.227984 0.548896,0.05958 z"
       id="path439" />
    <path
       style="fill:none;stroke:#000000;stroke-width:0.185;stroke-miterlimit:4;stroke-dasharray:none;stroke-opacity:1"
       d="m 41.484558,66.513532 c 0.03127,-0.219936 -0.233828,-0.551568 -0.588421,-0.736099 -0.181105,-0.09425 -0.248774,-0.09547 -0.370209,-0.0067 -0.215522,0.157592 -0.100403,0.420021 0.319806,0.729047 0.40277,0.296199 0.598063,0.300394 0.638824,0.01372 z"
       id="path437" />
    <path
       style="fill:none;stroke:#000000;stroke-width:0.185;stroke-miterlimit:4;stroke-dasharray:none;stroke-opacity:1"
       d="m 39.776829,66.434552 c 0.0424,-0.16895 0.0043,-0.259048 -0.17498,-0.413217 -0.270735,-0.232875 -0.333407,-0.240753 -0.510052,-0.06411 -0.160265,0.160265 -0.170907,0.379518 -0.02721,0.560697 0.231412,0.291781 0.629793,0.245149 0.712246,-0.08337 z"
       id="path435" />
    <path
       style="fill:none;stroke:#000000;stroke-width:0.185;stroke-miterlimit:4;stroke-dasharray:none;stroke-opacity:1"
       d="m 45.055906,72.920038 c -0.760837,-0.281453 -1.819626,-1.750043 -2.704683,-3.751526 -0.611947,-1.383864 -1.054988,-2.074333 -1.331002,-2.074333 -0.180397,0 -0.305055,0.34256 -0.262393,0.721056 0.04785,0.424487 0.335142,0.855321 1.156482,1.734277 0.379958,0.406613 0.793372,0.985195 1.149441,1.608667 0.305837,0.535517 0.601354,1.038515 0.656705,1.117773 0.147402,0.21107 0.0268,0.271704 -0.219475,0.110341 -0.148497,-0.0973 -0.526799,-0.162049 -1.238614,-0.212 -1.276312,-0.08956 -1.554276,-0.212812 -1.895341,-0.840377 -0.321672,-0.591885 -0.449664,-1.101747 -0.6022,-2.398893 -0.130837,-1.112623 -0.253511,-1.543756 -0.496628,-1.745377 -0.187483,-0.155484 -0.371832,-0.004 -0.44048,0.361915 -0.07356,0.392103 0.43163,2.876598 0.688446,3.385745 0.114889,0.227769 0.196425,0.426589 0.181193,0.441822 -0.07382,0.07382 -1.101822,-0.31437 -1.429426,-0.539767 -0.204231,-0.140515 -0.511102,-0.313882 -0.681934,-0.385261 -0.578258,-0.241611 -0.6245,-1.018151 -0.15203,-2.553043 0.317396,-1.031115 0.325803,-1.28615 0.04658,-1.41337 -0.40008,-0.182289 -0.854155,0.304693 -1.118127,1.199159 -0.130977,0.443816 -0.128907,0.503448 0.04412,1.270868 0.09985,0.442861 0.181542,0.912137 0.181542,1.042836 v 0.237633 L 36.22825,69.949472 C 36.030341,69.790679 35.460589,69.385574 34.962133,69.049238 34.463678,68.712901 33.939025,68.30466 33.796238,68.142035 l -0.259613,-0.295683 0.345006,-0.663144 c 0.409512,-0.787134 0.980218,-1.395989 1.563452,-1.667963 0.37092,-0.172966 0.552436,-0.19751 1.466066,-0.198235 0.573503,-4.23e-4 1.116428,-0.04027 1.2065,-0.08847 0.233554,-0.124995 0.207244,-0.377286 -0.152157,-1.459087 -0.561267,-1.68942 -0.405044,-2.781337 0.542963,-3.795026 0.503441,-0.538321 1.150353,-0.921713 1.557045,-0.922782 0.364009,-9.56e-4 1.094583,0.235271 1.094583,0.353928 0,0.122727 -0.287011,0.517851 -0.989248,1.361887 -0.339971,0.408617 -0.694619,0.892874 -0.788107,1.076126 -0.269102,0.527485 -0.190558,1.110947 0.115373,0.857046 0.05973,-0.04957 0.296186,-0.443376 0.525458,-0.875122 0.542127,-1.020889 1.236084,-1.742287 1.922866,-1.998901 0.740841,-0.276814 1.499658,-0.20956 1.499658,0.132914 0,0.08297 0.17145,0.359872 0.381,0.615328 0.278504,0.339517 0.381,0.538652 0.381,0.740233 0,0.326677 -0.0218,0.332063 -0.362393,0.08954 -0.383409,-0.273011 -1.144897,-0.313571 -1.521169,-0.08102 -0.416946,0.257686 -1.318729,1.226568 -1.462999,1.571855 -0.286697,0.686161 -0.04443,0.854596 0.459733,0.319623 1.020063,-1.08241 2.72869,-1.707818 3.72086,-1.361946 0.306047,0.106689 0.316079,0.137448 0.130998,0.401687 -0.0746,0.106506 -0.122224,0.205211 -0.105833,0.219344 0.01639,0.01413 0.260728,-0.01344 0.542972,-0.06128 0.695363,-0.117858 1.527693,0.06143 1.501965,0.323532 -0.01571,0.160084 0.022,0.169623 0.552189,0.139665 0.312981,-0.01769 0.722967,0.0093 0.911081,0.05994 0.308345,0.08303 0.372777,0.15097 0.654311,0.689939 0.171756,0.328812 0.312284,0.645372 0.312284,0.703466 0,0.09696 1.038893,0.39409 1.377888,0.39409 0.07589,0 0.260025,0.177391 0.409195,0.394202 0.298743,0.434208 0.625634,1.214465 0.508804,1.214465 -0.04075,0 -0.288958,-0.09837 -0.551575,-0.218599 -0.835878,-0.382678 -2.745167,-0.688728 -2.885013,-0.462454 -0.114638,0.18549 0.382372,0.351738 1.279716,0.428061 1.482327,0.12608 1.986964,0.322939 2.236446,0.87244 0.08845,0.19482 0.161657,0.446765 0.16268,0.559878 0.0014,0.160323 -0.30806,1.298694 -0.388914,1.430417 -0.03692,0.06015 -0.610642,-0.285257 -1.085576,-0.653574 -0.276476,-0.21441 -0.657476,-0.494447 -0.846667,-0.622307 -0.58405,-0.394712 -1.070357,-0.241908 -0.756171,0.237599 0.166296,0.2538 1.192982,0.950412 1.865514,1.265759 0.271703,0.127401 0.510032,0.246146 0.529618,0.263876 0.05829,0.05277 -0.349962,0.452229 -0.654637,0.640528 -0.227634,0.140686 -0.36688,0.165153 -0.709189,0.124611 -0.782876,-0.09272 -1.416353,-0.639747 -2.673175,-2.308368 -0.527048,-0.699736 -0.948759,-1.001918 -1.136388,-0.814289 -0.17319,0.17319 0.02599,0.565213 0.503859,0.991709 0.261115,0.233043 0.822646,0.747563 1.247847,1.14338 0.498711,0.464246 1.017954,0.851448 1.463007,1.09097 0.379453,0.204217 0.750282,0.438009 0.824064,0.519537 0.124227,0.137269 0.11347,0.160701 -0.145425,0.316774 -0.153766,0.0927 -0.477444,0.232726 -0.719284,0.311176 -0.24184,0.07845 -0.5336,0.21649 -0.648354,0.306756 -0.114755,0.09027 -0.264899,0.16412 -0.333653,0.16412 -0.06876,0 -0.442404,-0.158862 -0.830332,-0.353025 -0.533922,-0.267237 -0.875191,-0.520615 -1.404335,-1.042662 -0.629888,-0.621439 -0.746398,-0.789562 -1.178203,-1.700141 -0.80926,-1.706545 -1.366879,-2.418455 -1.722267,-2.198813 -0.150841,0.09323 -0.09887,0.66387 0.08845,0.971136 0.482734,0.791852 1.867024,2.647764 2.369358,3.176588 0.396775,0.4177 0.785288,0.718301 1.295704,1.002515 0.400955,0.223262 0.729008,0.43826 0.729008,0.477775 0,0.114432 -0.24227,0.181878 -1.080823,0.300896 -0.431469,0.06124 -0.931779,0.184217 -1.1118,0.273284 -0.225626,0.111632 -0.385792,0.140307 -0.515554,0.09231 z"
       id="path433" />
  </g>
</svg>
