<?xml version="1.0" encoding="UTF-8" standalone="no"?>
<svg
   xmlns:dc="http://purl.org/dc/elements/1.1/"
   xmlns:cc="http://creativecommons.org/ns#"
   xmlns:rdf="http://www.w3.org/1999/02/22-rdf-syntax-ns#"
   xmlns:svg="http://www.w3.org/2000/svg"
   xmlns="http://www.w3.org/2000/svg"
   xmlns:sodipodi="http://sodipodi.sourceforge.net/DTD/sodipodi-0.dtd"
   xmlns:inkscape="http://www.inkscape.org/namespaces/inkscape"
   width="25.328533mm"
   height="38.264008mm"
   viewBox="0 0 25.328533 38.264007"
   version="1.1"
   id="svg8"
   sodipodi:docname="monst5.svg"
   inkscape:version="1.0.2-2 (e86c870879, 2021-01-15)">
  <defs
     id="defs2" />
  <sodipodi:namedview
     id="base"
     pagecolor="#ffffff"
     bordercolor="#666666"
     borderopacity="1.0"
     inkscape:pageopacity="0.0"
     inkscape:pageshadow="2"
     inkscape:zoom="3.959798"
     inkscape:cx="0.053718996"
     inkscape:cy="77.370723"
     inkscape:document-units="mm"
     inkscape:current-layer="layer1"
     inkscape:document-rotation="0"
     showgrid="false"
     inkscape:window-width="2560"
     inkscape:window-height="1417"
     inkscape:window-x="-8"
     inkscape:window-y="-8"
     inkscape:window-maximized="1" />
  <metadata
     id="metadata5">
    <rdf:RDF>
      <cc:Work
         rdf:about="">
        <dc:format>image/svg+xml</dc:format>
        <dc:type
           rdf:resource="http://purl.org/dc/dcmitype/StillImage" />
        <dc:title />
      </cc:Work>
    </rdf:RDF>
  </metadata>
  <g
     inkscape:label="Layer 1"
     inkscape:groupmode="layer"
     id="layer1"
     transform="translate(-59.124859,-34.06634)">
    <path
       style="fill:none;stroke:#000000;stroke-width:0.185;stroke-miterlimit:4;stroke-dasharray:none;stroke-opacity:1"
       d="m 79.41966,38.879015 c 0.0389,-0.104775 0.09819,-0.340598 0.131752,-0.52405 0.05182,-0.283242 0.04282,-0.318433 -0.05974,-0.23332 -0.06642,0.05513 -0.190895,0.255742 -0.276606,0.445813 -0.133392,0.295813 -0.138324,0.356666 -0.03424,0.422524 0.163329,0.10335 0.158429,0.105626 0.238837,-0.110967 z"
       id="path535" />
    <path
       style="fill:none;stroke:#000000;stroke-width:0.185;stroke-miterlimit:4;stroke-dasharray:none;stroke-opacity:1"
       d="m 78.524031,40.318348 c -0.02513,-0.128058 -0.07935,-0.232833 -0.120487,-0.232833 -0.08756,0 -0.101831,0.452743 -0.01694,0.537633 0.105443,0.105443 0.183821,-0.06839 0.137427,-0.3048 z"
       id="path533" />
    <path
       style="fill:none;stroke:#000000;stroke-width:0.185;stroke-miterlimit:4;stroke-dasharray:none;stroke-opacity:1"
       d="m 69.64349,41.219457 c 0.07366,-0.02827 0.133925,-0.139217 0.133925,-0.246558 0,-0.162253 -0.05808,-0.204979 -0.344372,-0.253348 -0.189405,-0.032 -0.356339,-0.04487 -0.370965,-0.02861 -0.01463,0.01626 -0.0077,0.153398 0.01531,0.30474 0.03331,0.218726 0.08193,0.275166 0.237041,0.275166 0.107323,0 0.255399,-0.02313 0.329057,-0.05139 z"
       id="path531" />
    <path
       style="fill:none;stroke:#000000;stroke-width:0.185;stroke-miterlimit:4;stroke-dasharray:none;stroke-opacity:1"
       d="m 80.17351,41.055083 c 0.126265,-0.211809 0.377777,-0.621384 0.558914,-0.910166 0.181137,-0.288782 0.400624,-0.734609 0.487749,-0.990725 0.255826,-0.752031 0.228927,-0.708291 0.365759,-0.594731 0.100309,0.08325 0.132135,0.06332 0.17563,-0.109977 0.148952,-0.593471 -0.02631,-2.681959 -0.225064,-2.681959 -0.04129,0 -0.07508,0.03276 -0.07508,0.0728 0,0.04004 -0.24765,0.370677 -0.550333,0.73475 -0.316545,0.380746 -0.550333,0.74252 -0.550333,0.851609 0,0.104313 -0.0222,0.247511 -0.04933,0.318219 -0.0358,0.09329 0.06984,0.179828 0.385054,0.315428 0.414675,0.178389 0.432016,0.198803 0.382143,0.449865 -0.193784,0.975511 -0.583653,1.766679 -1.007398,2.044327 -0.118517,0.07766 -0.297858,0.274474 -0.398537,0.437376 -0.151491,0.245118 -0.162696,0.309075 -0.06499,0.370943 0.221219,0.140078 0.336099,0.07759 0.56582,-0.307758 z"
       id="path529" />
    <path
       style="fill:none;stroke:#000000;stroke-width:0.185;stroke-miterlimit:4;stroke-dasharray:none;stroke-opacity:1"
       d="m 78.458457,42.464715 c -0.06505,-0.204947 -0.258488,-0.236317 -0.328716,-0.05331 -0.06214,0.161937 0.192282,0.424046 0.303578,0.31275 0.04487,-0.04487 0.05619,-0.161623 0.02514,-0.259443 z"
       id="path527" />
    <path
       style="fill:none;stroke:#000000;stroke-width:0.185;stroke-miterlimit:4;stroke-dasharray:none;stroke-opacity:1"
       d="m 67.776037,42.667858 c -0.0268,-0.06985 -0.08276,-0.127 -0.124343,-0.127 -0.04158,0 -0.07561,0.05715 -0.07561,0.127 0,0.06985 0.05595,0.127 0.124343,0.127 0.07574,0 0.105294,-0.04964 0.07561,-0.127 z"
       id="path525" />
    <path
       style="fill:none;stroke:#000000;stroke-width:0.185;stroke-miterlimit:4;stroke-dasharray:none;stroke-opacity:1"
       d="m 69.544585,42.880681 c 0.113301,-8.81e-4 0.148167,-0.07247 0.148167,-0.304216 0,-0.297716 -0.0049,-0.302008 -0.275167,-0.243364 -0.312933,0.06789 -0.39902,0.164629 -0.40087,0.450465 -0.0011,0.166689 0.03073,0.191792 0.189204,0.149324 0.104775,-0.02808 0.257175,-0.05157 0.338666,-0.05221 z"
       id="path523" />
    <path
       style="fill:none;stroke:#000000;stroke-width:0.185;stroke-miterlimit:4;stroke-dasharray:none;stroke-opacity:1"
       d="m 77.49093,42.69777 c 0.199195,-0.279743 0.183187,-0.318431 -0.380123,-0.918707 l -0.413612,-0.440754 -0.372938,0.372939 -0.372938,0.372939 0.555576,0.533492 c 0.605574,0.581503 0.625825,0.58315 0.984035,0.08009 z"
       id="path521" />
    <path
       style="fill:none;stroke:#000000;stroke-width:0.185;stroke-miterlimit:4;stroke-dasharray:none;stroke-opacity:1"
       d="m 77.57755,43.070025 c 0.105314,-0.134286 0.102319,-0.137281 -0.03197,-0.03197 -0.08149,0.06391 -0.148167,0.130586 -0.148167,0.148167 0,0.06968 0.06953,0.02483 0.180134,-0.1162 z"
       id="path519" />
    <path
       style="fill:none;stroke:#000000;stroke-width:0.185;stroke-miterlimit:4;stroke-dasharray:none;stroke-opacity:1"
       d="m 75.17915,43.370592 c 0.170387,-0.170388 0.116499,-0.289371 -0.237007,-0.523311 -0.321781,-0.212945 -0.353333,-0.217926 -0.635,-0.100237 -0.163016,0.06811 -0.296393,0.1578 -0.296393,0.199305 0,0.04151 0.142422,0.1768 0.316494,0.300654 0.336924,0.239725 0.685239,0.290256 0.851906,0.123589 z"
       id="path517" />
    <path
       style="fill:none;stroke:#000000;stroke-width:0.185;stroke-miterlimit:4;stroke-dasharray:none;stroke-opacity:1"
       d="m 79.717103,43.702615 c 0.07205,-0.116272 0.06438,-0.169021 -0.03369,-0.231537 -0.166791,-0.106327 -0.193501,-0.104124 -0.378574,0.0312 -0.207438,0.151683 -0.112192,0.415038 0.136715,0.378016 0.100228,-0.01491 0.224223,-0.09487 0.275546,-0.177682 z"
       id="path515" />
    <path
       style="fill:none;stroke:#000000;stroke-width:0.185;stroke-miterlimit:4;stroke-dasharray:none;stroke-opacity:1"
       d="m 76.277911,44.102391 c 0.103494,-0.07249 0.188172,-0.164472 0.188172,-0.204405 0,-0.05697 -0.78604,-0.595194 -0.869105,-0.595106 -0.01094,1.1e-5 -0.02352,0.170253 -0.02795,0.378315 -0.0071,0.333449 0.01799,0.387856 0.211667,0.458961 0.298743,0.109679 0.285246,0.110704 0.497216,-0.03777 z"
       id="path513" />
    <path
       style="fill:none;stroke:#000000;stroke-width:0.185;stroke-miterlimit:4;stroke-dasharray:none;stroke-opacity:1"
       d="m 77.990083,44.197231 c 0,-0.0614 -0.05449,-0.156862 -0.121095,-0.212137 -0.0967,-0.08026 -0.13934,-0.06641 -0.211667,0.06873 -0.120296,0.224774 -0.115849,0.246877 0.05759,0.286262 0.188902,0.0429 0.275167,-0.0019 0.275167,-0.142859 z"
       id="path511" />
    <path
       style="fill:none;stroke:#000000;stroke-width:0.185;stroke-miterlimit:4;stroke-dasharray:none;stroke-opacity:1"
       d="m 76.717721,44.279371 c 0.189871,-0.228782 0.04394,-0.312023 -0.162242,-0.09255 -0.15485,0.164831 -0.17213,0.216701 -0.07219,0.216701 0.07227,0 0.177758,-0.05587 0.23443,-0.124153 z"
       id="path509" />
    <path
       style="fill:none;stroke:#000000;stroke-width:0.185;stroke-miterlimit:4;stroke-dasharray:none;stroke-opacity:1"
       d="m 69.086612,44.539802 c 0.06244,-0.128577 0.10054,-0.24621 0.08467,-0.261407 -0.08887,-0.08507 -0.624895,0.276629 -0.647803,0.437129 -0.02332,0.163418 4.23e-4,0.177012 0.211666,0.121072 0.137633,-0.03645 0.285801,-0.16157 0.35147,-0.296794 z"
       id="path507" />
    <path
       style="fill:none;stroke:#000000;stroke-width:0.185;stroke-miterlimit:4;stroke-dasharray:none;stroke-opacity:1"
       d="M 67.171229,44.553702 66.983417,44.36589 v 0.258703 c 0,0.328685 0.08193,0.410615 0.246272,0.246273 0.116025,-0.116025 0.110002,-0.148702 -0.05846,-0.317164 z"
       id="path505" />
    <path
       style="fill:none;stroke:#000000;stroke-width:0.185;stroke-miterlimit:4;stroke-dasharray:none;stroke-opacity:1"
       d="m 74.561634,45.407976 c 0.168609,-0.09948 0.275562,-0.206898 0.237672,-0.238703 -0.03789,-0.0318 -0.354639,-0.164659 -0.703889,-0.295232 -0.34925,-0.130574 -0.876473,-0.391764 -1.171606,-0.580423 -0.471989,-0.30171 -0.531571,-0.369271 -0.494797,-0.561057 0.02299,-0.119923 0.06937,-0.360594 0.103067,-0.534826 0.04082,-0.211083 0.02589,-0.359398 -0.04474,-0.4445 -0.269564,-0.324805 -0.366623,-0.02969 -0.240803,0.732185 0.09371,0.567439 0.119835,0.614212 0.599419,1.073198 0.394155,0.377225 1.274476,1.030235 1.38886,1.030235 0.01114,0 0.158204,-0.0814 0.326814,-0.180877 z"
       id="path503" />
    <path
       style="fill:none;stroke:#000000;stroke-width:0.185;stroke-miterlimit:4;stroke-dasharray:none;stroke-opacity:1"
       d="m 77.86638,45.668184 c 0.07057,-0.114188 -0.182846,-0.397041 -0.50496,-0.563613 -0.227805,-0.117803 -0.257207,-0.115773 -0.360033,0.02485 -0.170055,0.232564 -0.142056,0.28472 0.247863,0.461711 0.413303,0.187605 0.539098,0.203311 0.61713,0.07705 z"
       id="path501" />
    <path
       style="fill:none;stroke:#000000;stroke-width:0.185;stroke-miterlimit:4;stroke-dasharray:none;stroke-opacity:1"
       d="m 75.864158,45.787027 c 0.118621,-0.260343 0.05204,-0.33229 -0.385562,-0.41664 -0.204454,-0.03941 -0.343119,-4.23e-4 -0.58608,0.16464 l -0.31826,0.216264 0.20508,0.0779 c 0.648153,0.246193 0.958943,0.234115 1.084822,-0.04216 z"
       id="path499" />
    <path
       style="fill:none;stroke:#000000;stroke-width:0.185;stroke-miterlimit:4;stroke-dasharray:none;stroke-opacity:1"
       d="m 79.180982,46.263207 c 0.326023,-0.174482 0.150725,-0.477938 -0.222045,-0.384379 -0.298242,0.07485 -0.277002,0.388192 0.03155,0.46534 0.0147,0.0037 0.100429,-0.03276 0.1905,-0.08096 z"
       id="path497" />
    <path
       style="fill:none;stroke:#000000;stroke-width:0.185;stroke-miterlimit:4;stroke-dasharray:none;stroke-opacity:1"
       d="m 70.803668,46.599742 c 0.481173,-0.04938 0.886975,-0.101894 0.901783,-0.116702 0.01481,-0.01481 -0.0162,-0.198202 -0.06892,-0.407542 l -0.09584,-0.380619 -0.406831,0.273777 c -0.223758,0.150578 -0.658595,0.341927 -0.966304,0.42522 -0.30771,0.08329 -0.559474,0.183888 -0.559474,0.223543 0,0.09291 0.137797,0.09087 1.195585,-0.01768 z"
       id="path495" />
    <path
       style="fill:none;stroke:#000000;stroke-width:0.185;stroke-miterlimit:4;stroke-dasharray:none;stroke-opacity:1"
       d="m 77.303027,46.718991 c 0.477984,-0.154372 0.545078,-0.289917 0.217406,-0.439214 -0.608718,-0.277351 -1.557801,0.125368 -1.094258,0.464319 0.20363,0.148898 0.351165,0.144674 0.876852,-0.02511 z"
       id="path493" />
    <path
       style="fill:none;stroke:#000000;stroke-width:0.185;stroke-miterlimit:4;stroke-dasharray:none;stroke-opacity:1"
       d="m 80.149083,47.244598 c 0,-0.233484 -0.457371,-0.473052 -1.012513,-0.530348 -0.461874,-0.04767 -0.469154,-0.04498 -0.469154,0.173068 0,0.31607 0.491423,0.567437 1.058334,0.541349 0.356139,-0.01639 0.423333,-0.04561 0.423333,-0.184069 z"
       id="path491" />
    <path
       style="fill:none;stroke:#000000;stroke-width:0.185;stroke-miterlimit:4;stroke-dasharray:none;stroke-opacity:1"
       d="m 77.898618,47.366853 c 0.09505,-0.199583 0.09329,-0.202284 -0.03086,-0.04732 -0.07242,0.09039 -0.131671,0.201517 -0.131671,0.246945 0,0.107572 0.03911,0.05954 0.162535,-0.199627 z"
       id="path489" />
    <path
       style="fill:none;stroke:#000000;stroke-width:0.185;stroke-miterlimit:4;stroke-dasharray:none;stroke-opacity:1"
       d="m 76.459938,48.498435 c 0.29709,-0.377689 0.192027,-0.729021 -0.161438,-0.539852 -0.127505,0.06824 -0.171084,0.177069 -0.171084,0.427248 0,0.391898 0.0891,0.422069 0.332522,0.112604 z"
       id="path487" />
    <path
       style="fill:none;stroke:#000000;stroke-width:0.185;stroke-miterlimit:4;stroke-dasharray:none;stroke-opacity:1"
       d="m 75.873416,48.541815 c 0,-0.300653 -0.0176,-0.334424 -0.127,-0.243633 -0.06985,0.05797 -0.127,0.215036 -0.127,0.349033 0,0.160119 0.04353,0.243634 0.127,0.243634 0.09235,0 0.127,-0.09523 0.127,-0.349034 z"
       id="path485" />
    <path
       style="fill:none;stroke:#000000;stroke-width:0.185;stroke-miterlimit:4;stroke-dasharray:none;stroke-opacity:1"
       d="m 75.821736,49.629823 c 0.04084,-0.171658 0.02019,-0.248372 -0.07689,-0.285627 -0.194999,-0.07483 -0.222079,-0.0078 -0.158198,0.391717 0.05915,0.369894 0.129384,0.338198 0.235091,-0.10609 z"
       id="path483" />
    <path
       style="fill:none;stroke:#000000;stroke-width:0.185;stroke-miterlimit:4;stroke-dasharray:none;stroke-opacity:1"
       d="m 77.444848,52.115174 c -0.07148,-0.478079 -0.173346,-1.014014 -0.226363,-1.190967 l -0.09639,-0.321733 -0.306838,0.174731 c -0.168762,0.0961 -0.373514,0.231242 -0.455005,0.30031 -0.132901,0.112639 -0.148167,0.109579 -0.148167,-0.0297 0,-0.0854 0.133237,-0.277317 0.296081,-0.426477 0.281539,-0.257879 0.29344,-0.291443 0.242303,-0.683345 -0.06819,-0.522624 -0.146941,-0.623282 -0.428671,-0.547935 -0.194505,0.05202 -0.240403,0.137323 -0.371378,0.690238 l -0.149445,0.630885 0.218828,0.490645 c 0.202937,0.455014 0.235481,0.486989 0.448129,0.440283 0.204857,-0.04499 0.23503,-0.02171 0.28306,0.218438 0.02957,0.14784 0.05397,0.349763 0.05423,0.448718 9.32e-4,0.354252 0.169943,0.77813 0.442287,1.109237 l 0.276907,0.336655 0.0252,-0.385375 c 0.01386,-0.211956 -0.03328,-0.77653 -0.104768,-1.254609 z"
       id="path481" />
    <path
       style="fill:none;stroke:#000000;stroke-width:0.185;stroke-miterlimit:4;stroke-dasharray:none;stroke-opacity:1"
       d="m 71.323181,53.751528 c 0.07983,-0.07983 -0.174704,-0.716866 -0.409332,-1.02448 -0.178114,-0.23352 -0.751486,-0.618866 -0.920836,-0.618866 -0.02483,0 0.0896,0.176524 0.254284,0.392275 0.164687,0.215752 0.359392,0.511027 0.432678,0.656167 0.142057,0.281338 0.445024,0.644892 0.537421,0.644892 0.03069,0 0.07829,-0.02249 0.105785,-0.04999 z"
       id="path479" />
    <path
       style="fill:none;stroke:#000000;stroke-width:0.185;stroke-miterlimit:4;stroke-dasharray:none;stroke-opacity:1"
       d="m 80.623112,54.723895 c 0.171177,-0.183246 0.245636,-0.350066 0.245636,-0.550334 0,-0.158058 -0.03146,-0.287379 -0.06991,-0.287379 -0.206884,0 -0.761305,0.918565 -0.63229,1.047579 0.102024,0.102024 0.212766,0.05112 0.456564,-0.209866 z"
       id="path477" />
    <path
       style="fill:none;stroke:#000000;stroke-width:0.185;stroke-miterlimit:4;stroke-dasharray:none;stroke-opacity:1"
       d="m 77.228081,55.032197 c 0,-0.0627 -0.139409,-0.279523 -0.309797,-0.481838 -0.830852,-0.98653 -1.355021,-2.11258 -1.142099,-2.453523 0.08345,-0.133623 0.08474,-0.237216 0.006,-0.481614 -0.155455,-0.482462 -0.168433,-0.483226 -0.419175,-0.02471 -0.377742,0.690755 -0.830204,1.259061 -1.232334,1.547849 -0.205654,0.14769 -0.373917,0.300168 -0.373917,0.338841 0,0.03867 0.08573,0.153987 0.1905,0.256255 0.104775,0.102268 0.25747,0.283243 0.339321,0.402167 l 0.148822,0.216225 -0.0543,-0.278831 c -0.04155,-0.21332 -0.01411,-0.322727 0.11679,-0.465667 0.0941,-0.10276 0.24881,-0.341784 0.343795,-0.531166 0.09499,-0.189382 0.232634,-0.394072 0.305888,-0.454867 0.114736,-0.09522 0.133188,-0.08288 0.133188,0.08911 0,0.372359 0.463189,1.120569 1.130632,1.826361 0.620194,0.655827 0.816702,0.775027 0.816702,0.495403 z"
       id="path475" />
    <path
       style="fill:none;stroke:#000000;stroke-width:0.185;stroke-miterlimit:4;stroke-dasharray:none;stroke-opacity:1"
       d="m 80.784686,55.49454 c 0.444152,-0.226589 1.428084,-1.15547 1.491471,-1.408022 0.06357,-0.25328 -0.167342,-0.623669 -0.388813,-0.623669 -0.122506,0 -0.210043,0.129477 -0.353455,0.522797 -0.135403,0.371357 -0.332927,0.674923 -0.681882,1.047956 -0.638666,0.682737 -0.649662,0.758027 -0.06732,0.460938 z"
       id="path473" />
    <path
       style="fill:none;stroke:#000000;stroke-width:0.185;stroke-miterlimit:4;stroke-dasharray:none;stroke-opacity:1"
       d="m 77.990081,55.980169 c 0,-0.05904 -0.09937,-0.253583 -0.220824,-0.432318 -0.19716,-0.290146 -0.234557,-0.31124 -0.348962,-0.196835 -0.114404,0.114405 -0.103273,0.160735 0.103874,0.432319 0.230714,0.302482 0.465912,0.401846 0.465912,0.196834 z"
       id="path471" />
    <path
       style="fill:none;stroke:#000000;stroke-width:0.185;stroke-miterlimit:4;stroke-dasharray:none;stroke-opacity:1"
       d="m 76.669149,56.57501 c 0.03439,-0.171955 0.01975,-0.286222 -0.0392,-0.305871 -0.231437,-0.07715 -1.464888,-1.078012 -1.819977,-1.476795 -0.320904,-0.360391 -0.367651,-0.391221 -0.257062,-0.169533 0.07434,0.14903 0.135006,0.32048 0.134809,0.381 -1.69e-4,0.06052 0.276027,0.378896 0.613834,0.707501 0.337805,0.328605 0.714579,0.71913 0.837274,0.867833 0.286802,0.347599 0.460243,0.346247 0.530319,-0.0041 z"
       id="path469" />
    <path
       style="fill:none;stroke:#000000;stroke-width:0.185;stroke-miterlimit:4;stroke-dasharray:none;stroke-opacity:1"
       d="m 77.14341,56.854513 c 0,-0.211315 -0.166309,-0.315356 -0.262169,-0.164011 -0.123458,0.194917 -0.08573,0.328347 0.09284,0.328347 0.111172,0 0.169333,-0.05645 0.169333,-0.164336 z"
       id="path467" />
    <path
       style="fill:none;stroke:#000000;stroke-width:0.185;stroke-miterlimit:4;stroke-dasharray:none;stroke-opacity:1"
       d="m 76.804744,58.383882 c 0,-0.08743 -0.05715,-0.206396 -0.127,-0.264366 -0.108278,-0.08986 -0.127,-0.06643 -0.127,0.158967 0,0.178548 0.04123,0.264366 0.127,0.264366 0.06985,0 0.127,-0.07153 0.127,-0.158967 z"
       id="path465" />
    <path
       style="fill:none;stroke:#000000;stroke-width:0.185;stroke-miterlimit:4;stroke-dasharray:none;stroke-opacity:1"
       d="m 79.471294,58.88418 c 0.07124,-0.421682 -0.01489,-0.586884 -0.181764,-0.348635 -0.08225,0.117424 -0.104003,0.271463 -0.06654,0.471144 0.06927,0.369224 0.173955,0.317573 0.248307,-0.122509 z"
       id="path463" />
    <path
       style="fill:none;stroke:#000000;stroke-width:0.185;stroke-miterlimit:4;stroke-dasharray:none;stroke-opacity:1"
       d="m 75.348632,62.800592 c 0.02008,-0.269814 -0.02043,-0.395445 -0.188976,-0.586086 -0.167836,-0.18984 -0.230928,-0.217749 -0.289866,-0.128225 -0.134211,0.203863 0.179872,1.147456 0.362043,1.08768 0.05018,-0.01647 0.102744,-0.184483 0.116799,-0.373369 z"
       id="path461" />
    <path
       style="fill:none;stroke:#000000;stroke-width:0.185;stroke-miterlimit:4;stroke-dasharray:none;stroke-opacity:1"
       d="m 73.672077,63.208287 c 0,-0.18084 -0.53215,-0.686104 -0.722613,-0.686104 -0.208281,0 -0.138886,0.33686 0.123434,0.599179 0.286273,0.286273 0.599179,0.331668 0.599179,0.08693 z"
       id="path459" />
    <path
       style="fill:none;stroke:#000000;stroke-width:0.185;stroke-miterlimit:4;stroke-dasharray:none;stroke-opacity:1"
       d="m 76.120904,62.167861 c 0.0073,-0.823667 -0.07043,-1.114269 -0.335993,-1.256396 -0.224866,-0.120345 -0.588834,-0.03859 -0.588834,0.132264 0,0.06984 0.1143,0.34118 0.254,0.602972 0.198231,0.371476 0.254,0.583697 0.254,0.966555 0,0.269813 0.04367,0.597826 0.09705,0.728915 l 0.09705,0.238345 0.108105,-0.338667 c 0.05946,-0.186266 0.111034,-0.669561 0.114613,-1.073988 z"
       id="path457" />
    <path
       style="fill:none;stroke:#000000;stroke-width:0.185;stroke-miterlimit:4;stroke-dasharray:none;stroke-opacity:1"
       d="m 78.15012,64.763496 c 0.325497,-0.370722 0.566555,-0.837569 0.825314,-1.598353 0.227543,-0.669001 0.266174,-1.701809 0.109843,-2.936665 -0.123398,-0.974717 -0.126737,-0.980747 -0.377828,-0.682342 -0.401054,0.476626 -1.326323,0.646291 -2.135539,0.39159 -0.172056,-0.05415 -0.190184,-0.03236 -0.187238,0.225082 0.0026,0.227302 0.05834,0.319551 0.275166,0.455403 0.221994,0.13909 0.289834,0.255652 0.369575,0.635 0.05372,0.255551 0.101343,0.776076 0.105833,1.156722 0.0068,0.579055 -0.03916,0.83125 -0.281613,1.544221 -0.159378,0.468676 -0.258067,0.871738 -0.219307,0.895692 0.146709,0.09067 0.333377,-0.06777 0.501689,-0.425844 0.273576,-0.582009 0.341672,-1.015512 0.345289,-2.198153 0.0037,-1.20706 0.06173,-1.432428 0.313104,-1.215778 0.08434,0.07268 0.362886,0.198628 0.619002,0.279871 0.63977,0.202945 0.701159,0.263244 0.555254,0.545393 -0.06469,0.125099 -0.179948,0.530841 -0.256127,0.90165 -0.168255,0.819001 -0.425587,1.400027 -0.836492,1.888708 -0.358259,0.426069 -0.36181,0.43649 -0.148739,0.43649 0.08831,0 0.278576,-0.134409 0.422814,-0.298687 z"
       id="path455" />
    <path
       style="fill:none;stroke:#000000;stroke-width:0.185;stroke-miterlimit:4;stroke-dasharray:none;stroke-opacity:1"
       d="m 78.19172,65.692785 c 0.02891,-0.07535 0.01472,-0.109331 -0.03328,-0.07967 -0.04603,0.02845 -0.0837,0.08758 -0.0837,0.131397 0,0.121787 0.06069,0.09495 0.116972,-0.05173 z"
       id="path453" />
    <path
       style="fill:none;stroke:#000000;stroke-width:0.185;stroke-miterlimit:4;stroke-dasharray:none;stroke-opacity:1"
       d="m 79.203951,72.127676 c -0.353117,-0.180434 -0.502028,-0.53446 -0.376395,-0.894852 0.11693,-0.335426 0.117352,-0.328641 -0.02044,-0.328641 -0.06286,0 -0.280655,0.12051 -0.483981,0.267798 -0.422895,0.306343 -0.974038,0.494202 -1.449898,0.494202 -0.350295,0 -0.856905,-0.175913 -0.95262,-0.330785 -0.103703,-0.167796 0.03695,-0.410458 0.3014,-0.519998 0.142069,-0.05885 0.292042,-0.195723 0.333273,-0.304169 l 0.07497,-0.197175 0.203898,0.203898 c 0.112144,0.112145 0.362596,0.251446 0.556561,0.309558 0.309141,0.09262 0.370496,0.08782 0.49718,-0.0389 0.181497,-0.181545 0.0918,-0.250863 -0.575148,-0.444479 -0.698759,-0.202851 -0.726687,-0.257929 -0.386744,-0.762715 0.28683,-0.425919 0.751163,-0.878572 0.90124,-0.878572 0.04299,0 0.07875,0.104775 0.07947,0.232833 6.77e-4,0.128058 0.03267,0.282288 0.07101,0.342732 0.03834,0.06045 0.05144,-0.491414 0.0291,-1.226353 -0.03766,-1.239167 -0.05564,-1.358955 -0.247389,-1.648712 -0.113726,-0.171852 -0.26515,-0.334859 -0.336499,-0.362238 -0.162388,-0.06231 -0.12089,0.196976 0.148216,0.926071 0.163539,0.443079 0.174944,0.55353 0.08925,0.864273 -0.237938,0.862763 -1.098535,1.500826 -2.378448,1.763428 -0.348592,0.07152 -0.670537,0.166772 -0.715433,0.211669 -0.0449,0.0449 -0.144494,0.08163 -0.221327,0.08163 -0.152085,0 -0.843088,-0.469786 -0.841394,-0.572031 5.93e-4,-0.03463 0.25829,-0.16706 0.572703,-0.294282 0.86108,-0.348425 1.500587,-0.755368 1.500587,-0.954881 0,-0.289322 -0.315372,-0.237157 -0.880015,0.145562 -1.42588,0.96647 -1.646682,1.057703 -1.87986,0.776741 -0.06249,-0.07529 -0.316196,-0.232811 -0.5638,-0.350046 -0.337371,-0.159738 -0.504952,-0.306599 -0.668707,-0.586024 -0.271191,-0.462754 -0.289538,-0.634691 -0.07162,-0.671178 0.09313,-0.01559 0.717602,-0.05059 1.387708,-0.07778 0.97667,-0.03962 1.283204,-0.0825 1.545167,-0.216142 0.367064,-0.187262 0.404242,-0.285201 0.158237,-0.416859 -0.128558,-0.0688 -0.384707,-0.03676 -1.079499,0.135032 -0.634202,0.156811 -1.1573,0.228324 -1.721856,0.235395 -0.943296,0.01181 -1.262327,-0.101309 -1.265283,-0.44865 -0.001,-0.12019 -0.07722,-0.384612 -0.169333,-0.587606 -0.09211,-0.202994 -0.167474,-0.45902 -0.167474,-0.568949 v -0.199869 l 0.295808,0.200741 c 0.376838,0.255729 0.887099,0.308649 2.662016,0.27608 0.959027,-0.0176 1.401651,-0.05601 1.424181,-0.123606 0.0455,-0.136494 -0.186992,-0.170962 -1.545672,-0.229156 -1.388879,-0.05949 -2.164547,-0.21805 -2.56652,-0.524649 -0.271996,-0.207462 -0.28648,-0.243501 -0.238516,-0.593442 0.02809,-0.204911 0.09183,-0.448732 0.141651,-0.541825 0.08786,-0.164173 0.100415,-0.161473 0.417754,0.08987 0.643886,0.509967 0.986028,0.602904 2.138196,0.580805 0.571323,-0.01096 1.148516,0.01202 1.282652,0.05106 0.187576,0.0546 0.235212,0.04498 0.206328,-0.04168 -0.06593,-0.197779 -0.431006,-0.409615 -1.151731,-0.668289 -0.385837,-0.13848 -0.811775,-0.33029 -0.946531,-0.426245 -0.31729,-0.225931 -0.584465,-0.663727 -0.721062,-1.181545 l -0.108992,-0.413165 0.38076,-0.367861 c 0.209417,-0.202325 0.488823,-0.596463 0.620901,-0.875863 0.381087,-0.806153 0.587444,-1.001631 0.587444,-0.556478 0,0.168923 0.07415,0.306996 0.232833,0.433563 0.221197,0.176428 0.281494,0.182528 1.2065,0.122061 0.535517,-0.03501 1.107016,-0.07199 1.27,-0.08218 0.274642,-0.01717 0.298232,-0.04075 0.322281,-0.322045 0.02101,-0.245759 -0.01121,-0.322808 -0.169333,-0.40491 -0.107405,-0.05577 -0.355998,-0.23127 -0.55243,-0.390006 -0.196432,-0.158735 -0.471814,-0.328582 -0.611961,-0.377437 -0.190588,-0.06644 -0.276504,-0.166928 -0.340879,-0.398698 -0.09599,-0.345591 -0.111861,-0.637799 -0.03862,-0.711038 0.02661,-0.02661 0.302839,0.06717 0.613834,0.208402 0.310994,0.141235 0.708042,0.307272 0.882329,0.368971 0.308051,0.109055 0.318379,0.106219 0.370567,-0.101711 0.02953,-0.117641 0.02028,-0.244649 -0.02055,-0.282241 -0.04083,-0.03759 -0.379034,-0.134482 -0.751568,-0.215313 -0.372533,-0.08083 -0.820208,-0.219508 -0.994833,-0.308174 -0.292894,-0.148715 -0.3175,-0.189508 -0.3175,-0.526377 0,-0.438779 -0.04055,-0.490637 -0.305039,-0.39008 -0.239211,0.09095 -0.244922,0.06942 -0.07088,-0.267136 0.07264,-0.140479 0.120269,-0.35382 0.105833,-0.47409 -0.02762,-0.230082 -0.269422,-0.444132 -0.3785,-0.335054 -0.03522,0.03522 -0.08845,0.491074 -0.118278,1.013005 -0.0587,1.027068 -0.193824,1.470779 -0.566315,1.859668 -0.203242,0.212189 -0.764031,0.449311 -0.852763,0.360578 -0.02005,-0.02005 0.06007,-0.151189 0.178062,-0.291411 0.285018,-0.338724 0.455421,-0.893258 0.574286,-1.86887 0.0539,-0.442383 0.116759,-0.947208 0.139688,-1.121833 0.0484,-0.368597 -0.105585,-0.440213 -0.182044,-0.08467 -0.02754,0.128058 -0.08597,0.613833 -0.129856,1.0795 -0.04388,0.465667 -0.139907,1.016869 -0.21339,1.224892 -0.280571,0.794275 -0.853743,1.541591 -1.39837,1.823228 -0.225653,0.11669 -0.283341,0.116796 -0.560403,10e-4 l -0.308854,-0.129049 0.396754,-0.349237 c 0.218594,-0.192414 0.503997,-0.5629 0.635576,-0.825052 0.327973,-0.653434 0.806021,-2.245708 0.731954,-2.437979 -0.05697,-0.147883 -0.06341,-0.147566 -0.150383,0.0074 -0.04998,0.08905 -0.254929,0.594332 -0.455449,1.122859 -0.402675,1.061363 -0.744779,1.603038 -1.22074,1.932879 -0.588878,0.408093 -1.004911,0.365601 -2.285556,-0.233438 l -0.381,-0.178218 0.397843,-0.06186 c 0.218815,-0.03402 0.594399,-0.168834 0.834633,-0.299585 0.486796,-0.264948 1.493801,-1.297908 1.573027,-1.613571 0.116619,-0.464641 -0.127808,-0.342072 -0.994738,0.49882 -0.724722,0.702954 -1.512966,1.145595 -2.180924,1.224705 -0.386638,0.04579 -0.446543,0.02725 -0.763995,-0.236406 -0.189453,-0.157351 -0.345147,-0.311641 -0.345986,-0.342865 -8.47e-4,-0.03122 0.122298,-0.08277 0.27364,-0.114552 0.695822,-0.146107 1.871619,-0.715158 1.963984,-0.950509 0.06168,-0.157158 -0.03862,-0.359833 -0.178081,-0.359833 -0.195646,0 -0.629341,0.251516 -1.114247,0.646193 -0.648306,0.527674 -1.45852,0.711774 -1.627499,0.369807 -0.03452,-0.06985 -0.181234,-0.329557 -0.32604,-0.577126 -0.343627,-0.587486 -0.337071,-0.842536 0.03305,-1.285541 0.258374,-0.309253 0.296333,-0.413312 0.296333,-0.812344 V 53.9708 h 0.497355 c 0.665038,0 1.10395,0.165793 1.928076,0.728303 0.785879,0.536403 1.384569,0.705346 1.384569,0.390708 0,-0.223062 -0.653396,-0.799708 -1.217409,-1.074412 -0.241586,-0.117664 -0.733533,-0.252193 -1.110924,-0.303797 -0.372534,-0.05094 -0.801159,-0.110434 -0.9525,-0.132212 -0.151342,-0.02178 -0.275167,-0.06946 -0.275167,-0.105966 0,-0.0365 0.143998,-0.272902 0.319994,-0.525331 0.245677,-0.352369 0.37805,-0.465621 0.56997,-0.487645 0.635308,-0.0729 1.631192,0.471279 2.635489,1.440115 0.477472,0.460612 0.731007,0.648714 0.8255,0.612454 0.07501,-0.02878 0.13638,-0.08112 0.13638,-0.1163 0,-0.09877 -0.488344,-0.694557 -0.788873,-0.96243 -0.98877,-0.881329 -1.61972,-1.263444 -2.341971,-1.418339 -0.233836,-0.05015 -0.425156,-0.11819 -0.425156,-0.151203 0,-0.09015 0.692712,-0.739053 0.904601,-0.84739 0.101713,-0.05201 0.263638,-0.09455 0.359833,-0.09455 0.0962,0 0.175545,-0.02857 0.176334,-0.0635 7.62e-4,-0.03493 0.170271,-0.243479 0.376628,-0.463454 l 0.375192,-0.399954 0.361432,0.127521 c 0.900428,0.317689 1.977567,1.23349 2.756268,2.343423 0.252756,0.36027 0.494842,0.676843 0.537968,0.703497 0.122629,0.07579 0.09213,-0.246419 -0.05749,-0.60736 -0.426642,-1.02923 -1.584688,-2.29758 -2.467601,-2.70264 -0.291042,-0.133523 -0.529167,-0.27024 -0.529167,-0.303815 0,-0.10753 0.899956,-0.252143 1.404367,-0.225667 l 0.488006,0.02562 0.439378,0.576896 c 0.241659,0.317293 0.56835,0.847369 0.725981,1.177946 0.571924,1.199419 0.627838,1.293634 0.785018,1.322764 0.14291,0.02649 0.15552,-0.01367 0.119627,-0.381 -0.06318,-0.646554 -0.455661,-1.351638 -1.135806,-2.040439 -0.333365,-0.337608 -0.556526,-0.613833 -0.495912,-0.613833 0.167323,0 1.39313,0.485161 1.767714,0.699643 0.558484,0.319778 0.68646,0.5686 0.677641,1.317524 -0.0054,0.460447 -0.06184,0.782585 -0.193603,1.10534 -0.102273,0.25053 -0.167262,0.474198 -0.144419,0.497041 0.06302,0.06302 0.684842,-0.453429 1.026528,-0.85258 0.166655,-0.194683 0.419671,-0.590928 0.562259,-0.880546 l 0.25925,-0.526576 -0.137348,-0.681642 c -0.07554,-0.374904 -0.137348,-0.81422 -0.137348,-0.976257 0,-0.162038 -0.02057,-0.294614 -0.04571,-0.294614 -0.02514,0 -0.187064,0.07155 -0.359834,0.159001 -0.801619,0.405754 -1.240199,0.309606 -1.915645,-0.419956 -0.442388,-0.477833 -0.722671,-1.064259 -0.601991,-1.259524 0.02641,-0.04272 0.207811,-0.0067 0.405957,0.08069 0.911005,0.40165 2.674222,0.340702 2.685256,-0.09282 6.78e-4,-0.02801 -0.522578,-0.07404 -1.16287,-0.102288 -0.718551,-0.0317 -1.342413,-0.106521 -1.629833,-0.195479 -0.508958,-0.157524 -0.615982,-0.160874 -2.266052,-0.07094 -1.052247,0.05735 -1.125254,0.07251 -1.157984,0.240427 -0.01921,0.09857 -0.0821,0.422407 -0.139739,0.719638 -0.119133,0.614294 -0.59779,1.410785 -1.035408,1.722932 -0.383641,0.273646 -1.173697,0.271477 -1.560317,-0.0043 -0.365421,-0.26064 -0.346946,-0.354068 0.07001,-0.354068 0.268626,0 0.400068,-0.05489 0.592667,-0.247487 0.255375,-0.255374 0.31408,-0.463363 0.158008,-0.55982 -0.165652,-0.102379 -0.461511,0.03638 -1.097874,0.514905 -0.787891,0.59247 -1.153318,0.783041 -1.700508,0.886813 -0.547923,0.103912 -1.061749,-0.01891 -1.442815,-0.344884 l -0.283657,-0.242645 0.525991,-0.0034 c 0.6445,-0.0042 1.236476,-0.215472 1.989243,-0.709891 0.309342,-0.203176 0.771835,-0.454399 1.027761,-0.558272 0.462302,-0.187634 0.808498,-0.465674 0.706645,-0.567527 -0.08286,-0.08286 -0.558233,0.141519 -1.134494,0.535503 -1.523135,1.041354 -2.925948,1.379312 -4.194149,1.010431 -0.524019,-0.152421 -0.699848,-0.331776 -0.795857,-0.811821 -0.05003,-0.250161 -0.03851,-0.277862 0.09434,-0.226882 0.450937,0.173041 0.954711,0.241869 1.416803,0.193571 0.710003,-0.07421 2.930997,-0.848356 3.198129,-1.114735 L 65.7519,46.774182 h -0.198349 c -0.109092,0 -0.679726,0.156152 -1.268076,0.347005 -1.834606,0.595122 -3.057576,0.548668 -3.769969,-0.143199 -0.167983,-0.163143 -0.305424,-0.346894 -0.305424,-0.408336 0,-0.06144 -0.1143,-0.458555 -0.254,-0.882473 -0.368786,-1.119078 -0.336433,-1.376805 0.103604,-0.825312 0.466656,0.584855 1.877519,1.027712 3.080564,0.966961 0.696591,-0.03518 0.930398,-0.162973 0.663614,-0.362725 -0.09063,-0.06786 -0.336232,-0.145703 -0.545782,-0.172987 -1.961623,-0.255415 -2.74011,-0.536445 -3.539154,-1.277619 l -0.448821,-0.416315 0.05772,-0.602065 0.05772,-0.602065 0.547134,0.414124 c 0.570522,0.431826 1.176039,0.76857 1.739456,0.967355 0.38439,0.13562 0.654614,0.04319 0.654614,-0.223906 0,-0.24203 -0.404998,-0.45499 -1.367079,-0.718848 -0.936124,-0.256738 -1.441801,-0.564173 -1.651594,-1.004113 -0.127397,-0.267155 -0.125308,-0.296997 0.03687,-0.526839 0.09456,-0.134004 0.235546,-0.443185 0.313309,-0.68707 0.197259,-0.61866 0.434141,-0.78424 1.121946,-0.78424 0.59784,0 0.988027,-0.141523 1.297026,-0.470437 0.106903,-0.113793 0.221188,-0.206896 0.253967,-0.206896 0.11338,0 0.675228,0.894674 0.851934,1.356598 0.124845,0.326355 0.197258,0.783053 0.244435,1.541615 0.07245,1.16491 0.231035,1.631453 0.554559,1.631453 0.288541,0 0.401088,-0.545993 0.301748,-1.463864 -0.0953,-0.880536 -0.270512,-1.329304 -0.954423,-2.444534 -0.23922,-0.390086 -0.417056,-0.727136 -0.395193,-0.749 0.02186,-0.02186 0.377579,-0.04606 0.790478,-0.05377 l 0.750725,-0.01402 0.241329,0.288257 c 0.378493,0.452091 0.52374,1.070207 0.525326,2.23559 7.62e-4,0.5588 -0.03127,1.340532 -0.07118,1.737181 -0.06038,0.600095 -0.05125,0.73887 0.05439,0.826544 0.268553,0.22288 0.44504,-0.29724 0.582737,-1.717373 0.125998,-1.299479 0.01641,-2.219548 -0.35887,-3.013087 -0.136377,-0.288369 -0.226886,-0.545379 -0.201131,-0.571134 0.04771,-0.04771 1.125338,0.100257 1.446303,0.198584 0.150332,0.04605 0.203186,-0.0098 0.355142,-0.375471 0.157375,-0.37869 0.357241,-0.574356 0.357241,-0.349737 0,0.04391 0.211194,0.307956 0.46932,0.586763 0.630758,0.681294 1.498818,1.182388 1.643301,0.948609 0.04132,-0.06686 0.126184,-0.04377 0.277952,0.07561 0.240815,0.189425 0.497115,0.21829 0.74766,0.0842 0.399364,-0.213733 0.06967,-0.533055 -1.003762,-0.972173 -0.781526,-0.319706 -1.36058,-0.73387 -1.707791,-1.221482 -0.165496,-0.232417 -0.165938,-0.248197 -0.01907,-0.680269 l 0.150353,-0.442332 0.316051,0.512045 c 0.35785,0.579762 0.845123,1.03389 1.43034,1.333046 0.413711,0.211484 0.699856,0.25883 0.780052,0.12907 0.07333,-0.11865 -0.182837,-0.288659 -0.78252,-0.519329 -0.485962,-0.186926 -0.620501,-0.291967 -1.084431,-0.846666 -0.291301,-0.348296 -0.531997,-0.701961 -0.534879,-0.785923 -0.0064,-0.18667 0.368848,-0.757365 0.446765,-0.679447 0.0308,0.0308 0.05599,0.132022 0.05599,0.224944 0,0.456186 1.029388,1.580828 1.446937,1.580828 0.26238,0 0.191665,-0.117903 -0.356873,-0.595006 -0.4927,-0.428538 -0.661506,-0.68671 -0.782039,-1.196048 -0.04574,-0.193295 -0.0088,-0.252146 0.263899,-0.420852 0.174392,-0.107872 0.349163,-0.197248 0.38838,-0.198613 0.03922,-0.0014 0.134468,0.187877 0.211667,0.420537 0.08753,0.263793 0.196133,0.433441 0.288529,0.450708 0.189009,0.03532 0.199662,-0.290254 0.02331,-0.712327 L 69.951031,34.995085 70.242503,34.8733 c 0.160311,-0.06698 0.458116,-0.121785 0.66179,-0.121785 0.361618,0 0.372822,0.0084 0.476853,0.355582 0.163969,0.54728 0.131891,1.279878 -0.08096,1.849046 -0.195068,0.521605 -0.181629,0.758705 0.043,0.758705 0.228423,0 0.310322,-0.427976 0.324993,-1.698301 l 0.01423,-1.232634 0.465666,0.07246 c 0.256117,0.03986 0.51588,0.12224 0.577253,0.183077 0.07223,0.07161 0.111707,0.331447 0.11193,0.736838 4.23e-4,0.719242 -0.216926,1.507251 -0.656628,2.380944 -0.324995,0.645768 -0.328278,0.65828 -0.172677,0.65828 0.191876,0 0.38002,-0.27894 0.475493,-0.704959 0.05003,-0.22324 0.220308,-0.662739 0.378398,-0.976664 0.313122,-0.621776 0.484558,-1.351023 0.40929,-1.74102 l -0.0478,-0.247643 0.272723,0.194195 c 0.149996,0.106808 0.464037,0.385512 0.697868,0.619342 0.418162,0.418163 0.424187,0.431559 0.366715,0.815448 -0.09612,0.642025 -0.831474,1.927987 -1.660786,2.904317 -0.157737,0.185701 -0.245278,0.365634 -0.215563,0.443073 0.0721,0.187875 0.264998,0.08257 0.504217,-0.275243 0.794883,-1.188962 1.297536,-2.046844 1.456466,-2.485768 l 0.184636,-0.509915 0.10943,0.264188 c 0.06019,0.145303 0.317072,0.45396 0.570856,0.685904 0.447127,0.408649 0.458608,0.43025 0.370498,0.697064 -0.142358,0.431096 -0.65741,1.00122 -1.51896,1.681379 -0.747468,0.590095 -1.183929,1.048626 -1.088752,1.143803 0.0996,0.0996 0.652319,-0.227842 0.770558,-0.45649 0.07063,-0.136581 0.349383,-0.450452 0.619456,-0.697492 l 0.491041,-0.449164 0.07809,0.220161 0.07809,0.220161 0.326526,-0.227839 c 0.257112,-0.179403 0.318955,-0.271205 0.290907,-0.431837 -0.02644,-0.151402 0.05479,-0.298666 0.315052,-0.571162 0.192871,-0.20194 0.379248,-0.367315 0.414173,-0.367501 0.03493,-1.86e-4 0.0635,0.146862 0.0635,0.326772 0,0.889167 0.389106,1.93043 0.978795,2.619296 0.305057,0.356363 0.314255,0.360364 0.434318,0.18895 0.111789,-0.159601 0.09991,-0.203849 -0.134027,-0.499217 -0.141178,-0.178252 -0.318062,-0.375031 -0.393075,-0.437286 -0.236712,-0.196453 -0.431982,-0.691331 -0.594178,-1.505838 -0.113626,-0.570603 -0.13247,-0.828101 -0.06816,-0.931334 0.08726,-0.14006 0.719585,-0.539973 0.771577,-0.487982 0.01457,0.01457 -0.01244,0.20023 -0.06002,0.412569 -0.09679,0.431911 -0.01804,0.997083 0.2148,1.541399 l 0.144866,0.338666 0.100571,-0.240044 c 0.08058,-0.19233 0.07549,-0.316237 -0.02562,-0.62336 -0.102825,-0.312336 -0.108646,-0.47766 -0.03144,-0.892812 0.05211,-0.280223 0.105665,-0.518859 0.119005,-0.530303 0.01334,-0.01144 0.243331,-0.03819 0.511089,-0.05944 0.445334,-0.03534 0.486833,-0.024 0.486833,0.133073 0,0.120157 0.07937,0.04656 0.264366,-0.245153 0.24861,-0.392018 0.261229,-0.450611 0.211736,-0.983138 -0.0794,-0.854357 -0.0871,-0.862731 -0.522545,-0.56885 -0.204856,0.138256 -0.395143,0.288068 -0.422861,0.332916 -0.05691,0.09209 -0.208029,0.02473 -0.208029,-0.09272 0,-0.04226 0.17513,-0.27403 0.389177,-0.515036 0.343191,-0.386415 0.382059,-0.469285 0.32894,-0.701326 -0.03313,-0.144724 -0.0734,-0.388147 -0.08948,-0.54094 -0.01608,-0.152793 -0.05205,-0.314718 -0.07994,-0.359833 -0.03055,-0.04943 0.150375,-0.08203 0.455284,-0.08203 h 0.505981 l 0.09473,0.441708 c 0.0521,0.24294 0.137776,0.808599 0.190388,1.25702 l 0.09566,0.815312 0.37283,-0.419787 c 0.205057,-0.230883 0.434947,-0.550047 0.510868,-0.709254 0.134945,-0.282984 0.131987,-0.301737 -0.132078,-0.837234 L 80.87032,34.158849 h 0.322516 c 0.279717,0 0.340437,0.03652 0.457566,0.275167 l 0.13505,0.275166 0.100259,-0.275166 c 0.05514,-0.151342 0.153683,-0.275167 0.218978,-0.275167 0.150704,0 0.148952,0.05044 -0.01887,0.542953 -0.125826,0.369278 -0.126294,0.4592 -0.0055,1.052249 0.07266,0.356656 0.154622,0.787475 0.182142,0.957376 0.06826,0.421406 0.340331,0.749113 0.623231,0.75067 0.252964,0.0014 0.621756,0.16516 0.66451,0.295086 0.01786,0.05427 -0.207711,0.06747 -0.628313,0.03676 -0.360896,-0.02635 -0.660136,-0.0454 -0.664977,-0.04233 -0.0048,0.0031 -0.04844,0.253224 -0.09688,0.555907 -0.0873,0.545468 -0.08593,0.552333 0.154919,0.776522 0.239686,0.223109 0.241409,0.231453 0.126584,0.612988 -0.25566,0.849496 -0.970497,1.740947 -2.043753,2.548703 -0.635666,0.478416 -0.784739,0.718454 -0.446187,0.718454 0.116625,0 0.386742,-0.212754 0.740833,-0.583505 0.306506,-0.320928 0.738566,-0.70397 0.960133,-0.851204 0.462888,-0.307596 1.025944,-1.011637 1.191506,-1.489848 l 0.113547,-0.327973 0.217248,0.377432 c 0.119486,0.207587 0.244622,0.510781 0.278079,0.673764 0.03346,0.162984 0.116493,0.405212 0.184524,0.538286 0.06803,0.133074 0.103134,0.323574 0.07801,0.423333 -0.157103,0.623713 -1.236709,1.474469 -2.970317,2.340685 -0.578237,0.288921 -0.943393,0.522152 -0.961049,0.613833 -0.0369,0.191606 0.236983,0.196489 0.596386,0.01064 0.75349,-0.389646 2.613054,-1.620832 2.96472,-1.962892 l 0.402167,-0.391182 0.0025,0.377817 c 0.0014,0.215431 0.106331,0.632548 0.244119,0.970484 0.286927,0.703709 0.262998,0.782438 -0.357807,1.177272 -0.502014,0.319283 -0.997937,0.492511 -1.963114,0.685726 -1.284596,0.257158 -1.964408,0.519457 -1.791533,0.691247 0.26735,0.265673 3.544947,-0.222671 4.14869,-0.618132 l 0.325158,-0.212983 -0.02882,0.923655 c -0.0282,0.903596 -0.03434,0.928605 -0.282824,1.151593 -0.836024,0.750245 -2.25837,1.077259 -3.514146,0.807944 -0.543509,-0.116562 -0.846187,-0.04965 -0.846187,0.187055 0,0.273586 0.295081,0.622252 0.669517,0.791099 0.319208,0.143943 0.354451,0.144778 0.555327,0.01316 l 0.214489,-0.140538 v 0.329201 c 0,0.615489 -0.52004,1.030689 -1.286962,1.02751 -0.82088,-0.0034 -1.548705,-0.526049 -1.772428,-1.272772 -0.08958,-0.298984 -0.07839,-0.451908 0.08221,-1.123237 0.208677,-0.872336 0.212515,-0.904132 0.109093,-0.904132 -0.04075,0 -0.09664,0.112805 -0.124218,0.250678 -0.02758,0.137873 -0.179682,0.395048 -0.338017,0.5715 -0.158334,0.176452 -0.313808,0.404201 -0.345498,0.506108 -0.03169,0.101907 -0.190481,0.301941 -0.352869,0.444519 -0.26193,0.229978 -0.284133,0.280732 -0.196736,0.449715 0.05418,0.104764 0.148563,0.248193 0.209733,0.318731 0.06117,0.07054 0.149705,0.280088 0.196742,0.465667 0.04704,0.185579 0.184245,0.699366 0.304906,1.141749 0.146714,0.537907 0.235758,1.12685 0.268819,1.778 0.04382,0.863105 0.07174,0.997702 0.245837,1.185334 0.108021,0.116416 0.257186,0.357179 0.331478,0.535027 0.07477,0.178989 0.180728,0.307175 0.237325,0.287109 0.167135,-0.05926 0.08779,-0.570381 -0.20017,-1.28954 -0.148112,-0.369894 -0.28853,-0.815941 -0.31204,-0.991216 -0.05517,-0.411303 0.101013,-0.952674 0.395157,-1.369739 l 0.233227,-0.330691 0.670371,-0.0093 c 0.368703,-0.0051 0.890825,-0.07364 1.160271,-0.152307 0.6271,-0.183088 0.801955,-0.132012 0.56768,0.165821 -0.09272,0.117873 -0.168581,0.29871 -0.168581,0.401861 0,0.272404 0.391278,0.7682 1.118817,1.417674 0.691286,0.61711 0.913183,0.973221 0.913183,1.46552 0,0.261385 -0.08201,0.412388 -0.472251,0.869522 -0.731804,0.857251 -1.04713,1.059818 -2.523591,1.621167 -0.12182,0.04632 -0.221491,0.12445 -0.221491,0.17363 0,0.295574 0.794412,0.148647 1.512917,-0.279816 0.250021,-0.149092 0.77374,-0.566354 1.163818,-0.927245 0.724316,-0.67012 0.963931,-0.790438 0.963931,-0.484019 0,0.09468 0.09525,0.360115 0.211667,0.589852 0.287213,0.566788 0.280104,0.811813 -0.02532,0.872898 -0.130345,0.02607 -0.504178,0.201443 -0.83074,0.38972 -0.781083,0.450328 -1.22211,0.598773 -1.800415,0.606 -0.261903,0.0033 -0.54862,0.03436 -0.637148,0.0691 -0.14105,0.05533 -0.127636,0.07695 0.108438,0.174733 0.491166,0.203447 1.112877,0.0707 2.782379,-0.594075 0.383822,-0.152833 0.716545,-0.259191 0.739386,-0.236351 0.02284,0.02284 0.0041,0.172103 -0.04169,0.331695 -0.04577,0.159591 -0.08322,0.51326 -0.08322,0.78593 0,0.554518 -0.198837,1.071833 -0.411813,1.071418 -0.401844,-7.62e-4 -1.714126,-0.292626 -2.319526,-0.515845 -0.649607,-0.239517 -1.07866,-0.271619 -1.07866,-0.0807 0,0.122384 0.411654,0.383597 1.119719,0.71051 0.808007,0.373057 1.294647,0.508335 1.605212,0.446222 0.350125,-0.07002 0.291614,0.07674 -0.163765,0.410779 -0.880427,0.645825 -2.298782,0.841738 -2.896206,0.400043 l -0.257627,-0.190471 v 0.593614 0.593614 l 0.549934,0.58296 c 0.302465,0.320628 0.607072,0.719708 0.676906,0.886845 l 0.126972,0.303885 -0.613406,0.51939 c -0.337373,0.285664 -0.869155,0.658823 -1.181738,0.829242 -0.44266,0.241337 -0.580174,0.362676 -0.62189,0.54874 -0.02946,0.131388 -0.0355,0.256942 -0.01344,0.279008 0.04604,0.04604 1.424137,-0.512169 1.749138,-0.708501 0.119088,-0.07194 0.343428,-0.268035 0.498535,-0.435764 l 0.282013,-0.304964 -0.03793,0.61459 c -0.04881,0.790858 -0.410801,1.560601 -0.962152,2.04592 -0.470977,0.414571 -0.858826,0.507544 -1.362188,0.326536 l -0.360757,-0.129727 0.005,0.942007 c 0.0065,1.216472 0.08878,1.697388 0.335213,1.959704 0.412762,0.439365 0.467306,0.0855 0.08307,-0.538955 -0.366814,-0.59615 -0.336538,-1.113741 0.06515,-1.113741 0.119,0 0.406172,-0.121801 0.638162,-0.270668 0.368001,-0.236146 0.520127,-0.277567 1.192746,-0.324764 0.42402,-0.02975 0.907424,-0.112885 1.074231,-0.184739 0.315719,-0.136 0.670382,-0.513163 0.670382,-0.712914 0,-0.412326 0.330284,0.277605 0.471566,0.985056 0.03254,0.162967 0.135994,0.454424 0.229886,0.647681 l 0.170713,0.351379 -0.180221,0.283651 c -0.276415,0.435052 -0.425369,0.759208 -0.519396,1.130318 -0.114895,0.453469 -0.352078,0.823581 -0.69579,1.085743 -0.228428,0.174231 -0.391146,0.219836 -0.835703,0.234229 l -0.552044,0.01787 -0.43731,-0.457255 c -0.406402,-0.424938 -0.447238,-0.44741 -0.577776,-0.31796 -0.130729,0.129638 -0.120686,0.160877 0.144869,0.450648 0.179703,0.19609 0.450396,0.367233 0.7312,0.462295 0.391319,0.132474 0.429179,0.164787 0.309478,0.264131 -0.210805,0.174952 -1.047042,0.195879 -1.363602,0.03412 z"
       id="path451" />
  </g>
</svg>
