<?xml version="1.0" encoding="UTF-8" standalone="no"?>
<svg
   xmlns:dc="http://purl.org/dc/elements/1.1/"
   xmlns:cc="http://creativecommons.org/ns#"
   xmlns:rdf="http://www.w3.org/1999/02/22-rdf-syntax-ns#"
   xmlns:svg="http://www.w3.org/2000/svg"
   xmlns="http://www.w3.org/2000/svg"
   xmlns:sodipodi="http://sodipodi.sourceforge.net/DTD/sodipodi-0.dtd"
   xmlns:inkscape="http://www.inkscape.org/namespaces/inkscape"
   width="13.718043mm"
   height="13.666629mm"
   viewBox="0 0 13.718043 13.666629"
   version="1.1"
   id="svg8"
   sodipodi:docname="monst2.svg"
   inkscape:version="1.0.2-2 (e86c870879, 2021-01-15)">
  <defs
     id="defs2" />
  <sodipodi:namedview
     id="base"
     pagecolor="#ffffff"
     bordercolor="#666666"
     borderopacity="1.0"
     inkscape:pageopacity="0.0"
     inkscape:pageshadow="2"
     inkscape:zoom="3.959798"
     inkscape:cx="76.866179"
     inkscape:cy="39.183671"
     inkscape:document-units="mm"
     inkscape:current-layer="layer1"
     inkscape:document-rotation="0"
     showgrid="false"
     inkscape:window-width="2560"
     inkscape:window-height="1417"
     inkscape:window-x="-8"
     inkscape:window-y="-8"
     inkscape:window-maximized="1" />
  <metadata
     id="metadata5">
    <rdf:RDF>
      <cc:Work
         rdf:about="">
        <dc:format>image/svg+xml</dc:format>
        <dc:type
           rdf:resource="http://purl.org/dc/dcmitype/StillImage" />
        <dc:title />
      </cc:Work>
    </rdf:RDF>
  </metadata>
  <g
     inkscape:label="Layer 1"
     inkscape:groupmode="layer"
     id="layer1"
     transform="translate(-34.547726,-35.114698)">
    <path
       style="fill:none;stroke:#000000;stroke-width:0.185;stroke-miterlimit:4;stroke-dasharray:none;stroke-opacity:1"
       d="m 39.598676,40.6357 c 0.88576,-0.486678 1.179061,-0.813459 0.845129,-0.9416 -0.149348,-0.05731 -0.988784,0.315685 -1.377204,0.611947 -0.231896,0.176876 -0.785185,1.071445 -0.785185,1.269503 0,0.03054 0.164143,-0.09577 0.36476,-0.280693 0.200619,-0.184924 0.629244,-0.481544 0.9525,-0.659157 z"
       id="path563" />
    <path
       style="fill:none;stroke:#000000;stroke-width:0.185;stroke-miterlimit:4;stroke-dasharray:none;stroke-opacity:1"
       d="m 42.726416,48.507305 c -0.186267,-0.124798 -0.414867,-0.295453 -0.508,-0.379233 -0.232412,-0.20907 -0.77734,-0.344208 -1.148595,-0.284841 -0.293666,0.04696 -0.310972,0.03628 -0.363016,-0.223937 -0.07845,-0.392264 0.08842,-1.319119 0.33474,-1.859253 0.116333,-0.255094 0.443019,-0.782443 0.725969,-1.171888 0.722597,-0.994562 0.931715,-1.793305 0.469502,-1.793305 -0.24722,0 -0.975654,0.78502 -1.3058,1.407235 -0.342318,0.645158 -0.501873,1.228791 -0.626253,2.290756 -0.05551,0.473911 -0.128952,0.907017 -0.163216,0.962457 -0.06962,0.112648 -0.906082,-0.416068 -1.257882,-0.795091 -0.177794,-0.191551 -0.195131,-0.268412 -0.145292,-0.644118 0.12438,-0.937615 0.831776,-2.08367 1.967409,-3.187406 0.607244,-0.590188 0.792767,-0.822999 0.792767,-0.994833 0,-0.427777 -0.44433,-0.197497 -1.332318,0.690492 -1.280152,1.280152 -2.054348,2.583612 -2.054348,3.458763 0,0.389083 -0.143672,0.360719 -0.603211,-0.119088 -0.616929,-0.644139 -0.751456,-0.86115 -0.751456,-1.212212 0,-0.233828 -0.04107,-0.33458 -0.150569,-0.369332 -0.08281,-0.02628 -0.366748,-0.266977 -0.630967,-0.534873 l -0.480396,-0.487083 0.239639,-0.565746 c 0.551916,-1.302978 1.673805,-2.563449 3.12227,-3.507946 0.858632,-0.559887 1.043399,-0.708818 0.988856,-0.797069 -0.06482,-0.104884 -0.722172,0.07826 -1.257768,0.350432 -1.390484,0.706593 -2.691088,1.911616 -3.206898,2.971222 -0.174625,0.358725 -0.3175,0.695275 -0.3175,0.747889 0,0.05262 -0.04762,0.08013 -0.105833,0.06114 -0.157287,-0.0513 -0.300087,-0.849979 -0.309336,-1.730111 l -0.0082,-0.776854 0.676216,-0.509543 c 0.842269,-0.63467 1.577804,-1.048878 2.517989,-1.41798 0.74587,-0.292816 1.039128,-0.48327 1.039128,-0.674852 0,-0.339812 -1.009719,-0.17251 -1.989667,0.329672 -0.519623,0.266284 -0.849829,0.521696 -1.418166,1.09694 -0.407459,0.41241 -0.740834,0.693658 -0.740834,0.624996 0,-0.228633 0.802421,-2.129749 1.084385,-2.569151 0.386449,-0.602229 0.704065,-0.742681 1.667282,-0.737283 0.665694,0.0037 0.845248,0.03942 1.420686,0.282373 0.863709,0.364665 1.07645,0.326416 1.792192,-0.322219 1.063683,-0.963951 2.395824,-1.192747 3.121866,-0.536182 0.20923,0.189208 0.480922,0.7256 0.480922,0.949467 0,0.172602 -0.0077,0.17179 -0.367272,-0.03896 -0.432375,-0.253388 -0.821056,-0.276482 -1.016605,-0.0604 -0.344071,0.380194 -0.117707,0.479322 1.257644,0.550744 1.460448,0.07584 2.183815,0.358301 2.641139,1.031313 0.117151,0.172404 0.23399,0.469937 0.259642,0.661185 l 0.04664,0.347724 -0.36671,-0.313889 c -0.500494,-0.428404 -1.10644,-0.63589 -2.272302,-0.778072 -0.54258,-0.06617 -1.131161,-0.162835 -1.307957,-0.214811 -0.368678,-0.108385 -0.874833,-0.08273 -0.841108,0.04264 0.03572,0.132768 0.412804,0.212117 1.374223,0.289173 1.963527,0.157374 3.222144,0.724011 4.104376,1.847812 0.418233,0.532753 0.451319,0.694401 0.246764,1.205635 -0.123364,0.308316 -0.28714,0.458059 -0.28714,0.262536 0,-0.169241 -0.883435,-1.031295 -1.297071,-1.265679 -0.241228,-0.13669 -1.019055,-0.444002 -1.728505,-0.682916 -1.039957,-0.350214 -1.341815,-0.420938 -1.557779,-0.364976 l -0.267869,0.06941 0.203112,0.130151 c 0.111712,0.07158 0.603162,0.275316 1.092112,0.45274 1.232682,0.4473 1.918703,0.807048 2.450114,1.284831 0.503013,0.452253 0.850504,1.088116 0.849758,1.554947 -5.08e-4,0.318052 -0.572836,1.908848 -0.818673,2.275517 l -0.148943,0.22215 -0.06029,-0.528774 c -0.106577,-0.934771 -0.856174,-2.034717 -1.943801,-2.852302 -0.45363,-0.340999 -0.921426,-0.50519 -0.920518,-0.323091 8.46e-4,0.166974 0.394242,0.674516 0.849654,1.096147 0.964601,0.893051 1.649874,2.152116 1.748982,3.213439 0.04733,0.506857 0.03802,0.543036 -0.19748,0.767588 -0.135934,0.129613 -0.328724,0.349896 -0.428422,0.489519 l -0.181271,0.25386 -0.05686,-0.25386 c -0.235078,-1.049599 -0.765209,-2.340027 -1.117478,-2.720133 -0.25981,-0.280339 -0.565061,-0.245406 -0.601361,0.06882 -0.03378,0.292408 0.143841,0.632648 0.756094,1.448329 0.809862,1.07895 0.969791,2.079775 0.367013,2.296748 -0.140134,0.05044 -0.467875,0.215498 -0.728314,0.366793 -0.67994,0.394992 -0.892287,0.418795 -1.299878,0.145708 z"
       id="path561" />
  </g>
</svg>
