<?xml version="1.0" encoding="UTF-8" standalone="no"?>
<svg
   xmlns:dc="http://purl.org/dc/elements/1.1/"
   xmlns:cc="http://creativecommons.org/ns#"
   xmlns:rdf="http://www.w3.org/1999/02/22-rdf-syntax-ns#"
   xmlns:svg="http://www.w3.org/2000/svg"
   xmlns="http://www.w3.org/2000/svg"
   xmlns:sodipodi="http://sodipodi.sourceforge.net/DTD/sodipodi-0.dtd"
   xmlns:inkscape="http://www.inkscape.org/namespaces/inkscape"
   width="15.056526mm"
   height="14.260909mm"
   viewBox="0 0 15.056526 14.260909"
   version="1.1"
   id="svg8"
   inkscape:version="1.0.2-2 (e86c870879, 2021-01-15)"
   sodipodi:docname="monst1.svg">
  <defs
     id="defs2" />
  <sodipodi:namedview
     id="base"
     pagecolor="#ffffff"
     bordercolor="#666666"
     borderopacity="1.0"
     inkscape:pageopacity="0.0"
     inkscape:pageshadow="2"
     inkscape:zoom="3.959798"
     inkscape:cx="131.93136"
     inkscape:cy="49.672183"
     inkscape:document-units="mm"
     inkscape:current-layer="layer1"
     inkscape:document-rotation="0"
     showgrid="false"
     inkscape:window-width="2560"
     inkscape:window-height="1417"
     inkscape:window-x="-8"
     inkscape:window-y="-8"
     inkscape:window-maximized="1" />
  <metadata
     id="metadata5">
    <rdf:RDF>
      <cc:Work
         rdf:about="">
        <dc:format>image/svg+xml</dc:format>
        <dc:type
           rdf:resource="http://purl.org/dc/dcmitype/StillImage" />
        <dc:title />
      </cc:Work>
    </rdf:RDF>
  </metadata>
  <g
     inkscape:label="Layer 1"
     inkscape:groupmode="layer"
     id="layer1"
     transform="translate(-18.408211,-35.144893)">
    <path
       style="fill:none;stroke:#000000;stroke-width:0.185;stroke-miterlimit:4;stroke-dasharray:none;stroke-opacity:1"
       d="m 27.190084,44.539076 c 0,-0.346268 -0.337133,-1.016456 -0.529167,-1.051935 -0.23459,-0.04334 -0.211067,1.023822 0.03133,1.421449 l 0.178866,0.293409 0.159484,-0.196955 c 0.08772,-0.108325 0.159485,-0.318011 0.159485,-0.465968 z"
       id="path559" />
    <path
       style="fill:none;stroke:#000000;stroke-width:0.185;stroke-miterlimit:4;stroke-dasharray:none;stroke-opacity:1"
       d="m 24.245751,45.694682 c 0.349318,-0.398402 0.548533,-1.276719 0.321416,-1.417086 -0.349986,-0.216303 -0.835289,0.890336 -0.627692,1.431328 0.06633,0.172855 0.145456,0.169176 0.306276,-0.01424 z"
       id="path557" />
    <path
       style="fill:none;stroke:#000000;stroke-width:0.185;stroke-miterlimit:4;stroke-dasharray:none;stroke-opacity:1"
       d="m 28.626257,45.888545 c 0.15753,-0.167682 0.187082,-0.27249 0.151543,-0.537451 -0.06499,-0.48454 -0.75459,-1.85977 -1.167656,-2.328591 -0.509843,-0.57866 -0.596573,-0.410051 -0.219105,0.425955 0.387478,0.858177 0.591951,1.652765 0.521689,2.027293 -0.02991,0.159408 -0.03072,0.364368 -0.0018,0.455465 0.07606,0.239625 0.472337,0.215986 0.715333,-0.04267 z"
       id="path555" />
    <path
       style="fill:none;stroke:#000000;stroke-width:0.185;stroke-miterlimit:4;stroke-dasharray:none;stroke-opacity:1"
       d="m 25.599563,49.104689 c -0.19957,-0.1141 -0.52342,-0.337497 -0.719667,-0.496437 -0.456843,-0.369998 -0.820324,-0.5529 -1.453751,-0.73152 -0.490012,-0.138179 -0.512583,-0.156962 -0.621414,-0.517135 -0.06211,-0.205561 -0.116627,-0.642623 -0.121142,-0.971247 -0.01153,-0.839224 0.233999,-1.335224 1.152009,-2.32721 0.782107,-0.845133 1.159402,-1.463241 0.994081,-1.628563 -0.07106,-0.07106 -0.187983,-0.008 -0.455113,0.245335 -0.454523,0.431109 -0.623216,0.530636 -1.477008,0.871418 -1.276822,0.509629 -1.610369,0.814189 -2.222178,2.029064 l -0.271882,0.539879 -0.33137,-0.323574 C 19.889874,45.616734 19.666302,45.320636 19.5753,45.136704 19.413114,44.808898 19.41297,44.796247 19.568,44.497066 c 0.37172,-0.717172 1.466645,-1.56604 3.177045,-2.463082 1.163026,-0.609964 1.384695,-0.751277 1.491479,-0.950804 0.06936,-0.129594 0.06573,-0.188975 -0.01456,-0.238599 -0.138792,-0.08578 -0.27735,-0.03155 -0.841919,0.329482 -0.256117,0.163784 -0.903825,0.490689 -1.439353,0.726454 -1.578335,0.694862 -2.479102,1.305611 -2.741677,1.858946 -0.0797,0.167962 -0.176704,0.305385 -0.215558,0.305385 -0.09332,0 -0.260079,-0.673578 -0.260079,-1.050533 0,-0.164018 -0.05964,-0.473883 -0.132535,-0.688588 -0.120821,-0.355873 -0.120552,-0.408661 0.0031,-0.597306 0.162827,-0.248506 0.736319,-0.676445 1.145482,-0.854757 0.76235,-0.332231 1.699207,-0.639631 2.443914,-0.801893 1.173593,-0.25571 1.736362,-0.58118 1.468345,-0.849197 -0.04926,-0.04926 -0.339419,-0.08956 -0.644803,-0.08956 -0.499172,0 -0.613104,0.03482 -1.128184,0.344756 -0.315116,0.189616 -0.877739,0.457483 -1.250272,0.59526 -0.372533,0.137777 -0.886883,0.348596 -1.143,0.468487 l -0.465666,0.217983 -0.07231,-0.273493 c -0.171412,-0.648346 0.0334,-1.327663 0.665983,-2.208905 0.162428,-0.226276 0.295324,-0.484394 0.295324,-0.573595 0,-0.343838 0.91428,-0.427039 2.201333,-0.200326 1.005495,0.177116 1.542265,0.166058 1.789787,-0.03687 0.182163,-0.149347 0.188063,-0.175904 0.06656,-0.299631 -0.227789,-0.231956 -1.134156,-0.318552 -2.332145,-0.222817 -0.595919,0.04762 -1.098635,0.07144 -1.117145,0.05293 -0.07088,-0.07088 0.264841,-0.799586 0.499555,-1.084335 0.22086,-0.267941 0.278665,-0.293877 0.568375,-0.255019 0.218427,0.0293 0.553285,-0.03128 1.037596,-0.187701 0.590711,-0.190789 0.869711,-0.231198 1.604086,-0.23233 0.986202,-0.0015 1.363175,0.09907 1.991602,0.53144 0.494249,0.340052 0.883378,1.004814 0.891318,1.522669 0.0082,0.534648 0.122884,1.177003 0.229109,1.283228 0.15474,0.154741 0.284014,-0.231231 0.365335,-1.090779 0.08853,-0.935752 0.222181,-1.220114 0.746484,-1.588277 0.327697,-0.230106 0.427287,-0.255172 1.013829,-0.255172 0.568647,0 0.724724,0.03638 1.241213,0.289314 0.747478,0.366054 1.725052,1.312628 2.025629,1.961396 0.115047,0.248316 0.196271,0.464389 0.180498,0.480162 -0.01577,0.01577 -0.19518,-0.05882 -0.398681,-0.165764 -0.342919,-0.180209 -0.466689,-0.193732 -1.690874,-0.184749 -1.873426,0.01375 -2.684692,0.240719 -2.13882,0.598388 0.186736,0.122354 0.486064,0.165296 1.466166,0.210338 0.716194,0.03291 1.568098,0.129914 2.035859,0.23181 0.442383,0.09637 0.830187,0.175714 0.861785,0.176326 0.0316,6.1e-4 0.117324,0.06098 0.1905,0.13416 0.215781,0.215781 0.166803,0.927768 -0.120952,1.758243 -0.1397,0.403182 -0.254,0.84743 -0.254,0.987217 0,0.16502 -0.04285,0.254159 -0.122182,0.254159 -0.145068,0 -1.196498,-0.875224 -1.313047,-1.092996 -0.04459,-0.08332 -0.339985,-0.362676 -0.656425,-0.620783 -0.999116,-0.814937 -1.839138,-1.222797 -2.286963,-1.1104 -0.294996,0.07404 -0.115138,0.234098 0.553636,0.492689 0.757926,0.293064 1.273557,0.687615 1.857196,1.421094 0.564432,0.70934 1.096345,1.269862 1.321261,1.392327 0.239061,0.130167 0.111895,0.389912 -0.455263,0.92991 -0.272081,0.259051 -0.540157,0.580762 -0.595725,0.714914 -0.207195,0.500213 -0.505248,0.211272 -1.039532,-1.007751 -0.594231,-1.355799 -1.227092,-2.233054 -2.038159,-2.825244 -0.358492,-0.261748 -0.812797,-0.32621 -0.812797,-0.115328 0,0.06917 0.415555,0.528606 0.923456,1.020967 1.02671,0.995297 1.345919,1.498282 1.743922,2.747935 0.280203,0.879788 0.281587,1.092835 0.0101,1.556085 -0.309871,0.528755 -0.73448,0.778352 -2.24262,1.318272 -0.874528,0.313084 -1.38631,0.607183 -1.614662,0.927873 -0.204767,0.287568 -0.226184,0.669557 -0.05056,0.901754 0.267377,0.353504 0.08803,0.386506 -0.444828,0.08186 z"
       id="path553" />
  </g>
</svg>
